<?xml version="1.0" encoding="UTF-8" standalone="no"?>
<svg width="291px" height="130px" viewBox="0 0 291 130" version="1.1" xmlns="http://www.w3.org/2000/svg" xmlns:xlink="http://www.w3.org/1999/xlink">
    <!-- Generator: Sketch 3.6.1 (26313) - http://www.bohemiancoding.com/sketch -->
    <title>Artboard 6 Copy 10</title>
    <desc>Created with Sketch.</desc>
    <defs></defs>
    <g id="Page-1" stroke="none" stroke-width="1" fill="none" fill-rule="evenodd">
        <g id="Artboard-6-Copy-10" fill="#FFFFFF">
            <g id="Group-7" transform="translate(60.000000, 38.000000)">
                <path d="M1.58238502,32.1505444 C1.38209465,32.1505444 1.22310127,32.3077172 1.19729065,32.5319503 L0.495241935,37.9439329 L1.19729065,43.2626597 C1.22310127,43.4868928 1.38209465,43.6430178 1.58238502,43.6430178 C1.77648084,43.6430178 1.93444181,43.4879406 1.96541454,43.2647553 L1.96541454,43.2647553 L1.96541454,43.2637075 C1.96541454,43.2637075 1.96541454,43.2637075 1.96541454,43.2647553 L2.79754876,37.9439329 L1.96541454,32.5309025 C1.93547423,32.3077172 1.77544842,32.1505444 1.58238502,32.1505444 L1.58238502,32.1505444 Z M5.53037663,29.1936006 C5.49733905,28.9609849 5.33318354,28.8006686 5.13082832,28.8006686 C4.92744068,28.8006686 4.75915547,28.966224 4.73128001,29.1936006 C4.73128001,29.1956962 3.78764394,37.9439329 3.78764394,37.9439329 L4.73128001,46.5004189 C4.75812305,46.7298911 4.92640825,46.8954464 5.13082832,46.8954464 C5.33215111,46.8954464 5.49630662,46.7340824 5.52934421,46.5025145 L6.60306578,37.9439329 L5.53037663,29.1936006 L5.53037663,29.1936006 Z M20.4014204,21.1222546 C20.0142611,21.1222546 19.6942095,21.4439349 19.6756259,21.8525841 L18.9240208,37.9512677 L19.6756259,48.3550576 C19.6952419,48.7616112 20.0142611,49.0822437 20.4014204,49.0822437 C20.7865147,49.0822437 21.1055339,48.7605634 21.1282473,48.352962 L21.1282473,48.3561054 L21.9779327,37.9512677 L21.1282473,21.8525841 C21.1055339,21.4439349 20.7865147,21.1222546 20.4014204,21.1222546 L20.4014204,21.1222546 Z M12.7046951,26.7176054 C12.4073568,26.7176054 12.164737,26.9586037 12.1409912,27.280284 L11.2944031,37.9470764 L12.1409912,48.2670409 C12.1637046,48.5866255 12.4073568,48.8276238 12.7046951,48.8276238 C12.9989361,48.8276238 13.2415559,48.5866255 13.2673665,48.2670409 L14.2295862,37.9470764 L13.2673665,27.2781883 C13.2415559,26.9586037 12.9989361,26.7176054 12.7046951,26.7176054 L12.7046951,26.7176054 Z M28.223069,49.0811958 C28.7031464,49.0811958 29.0934029,48.6882639 29.113019,48.185311 L29.8501701,37.9565067 L29.1140514,16.5233792 C29.0944354,16.0204263 28.7041789,15.6274944 28.2241014,15.6274944 C27.7398943,15.6274944 27.3486054,16.0214741 27.333119,16.524427 C27.333119,16.5254748 26.6795943,37.9554589 26.6795943,37.9554589 L27.333119,48.1884545 C27.3486054,48.6872161 27.7398943,49.0811958 28.223069,49.0811958 L28.223069,49.0811958 Z M44.2359743,49.1293955 C44.896726,49.1293955 45.4418462,48.5771951 45.4542353,47.8982087 L45.4542353,47.9055435 L45.4542353,47.8982087 L45.9683828,37.9627937 L45.4542353,13.2091292 C45.4428787,12.5311907 44.896726,11.9779425 44.2359743,11.9779425 C43.5741902,11.9779425 43.0280375,12.5301428 43.0177133,13.2101771 L42.5582844,37.9544111 C42.5582844,37.9701284 43.0177133,47.9044957 43.0177133,47.9044957 C43.0280375,48.5771951 43.5752226,49.1293955 44.2359743,49.1293955 L44.2359743,49.1293955 Z M36.1686086,49.0906262 C36.7436691,49.0906262 37.2072277,48.6222513 37.2227141,48.0249948 L37.2227141,48.0323295 L37.8483634,37.9586024 L37.2216817,16.3703977 C37.2061953,15.7731411 36.7426367,15.3058141 36.1675762,15.3058141 C35.588386,15.3058141 35.1248274,15.7731411 35.1124383,16.3703977 L34.5559614,37.9596502 L35.1134707,48.0312817 C35.1258598,48.6222513 35.5894184,49.0906262 36.1686086,49.0906262 L36.1686086,49.0906262 Z M16.5380876,48.9963225 C16.8798201,48.9963225 17.1565099,48.7186506 17.1823205,48.352962 L18.0887893,37.9470764 L17.1823205,28.0483349 C17.1575423,27.6826463 16.8808525,27.40707 16.5380876,27.40707 C16.1911929,27.40707 15.9145031,27.6847419 15.8928222,28.0525262 L15.094758,37.9470764 L15.8928222,48.3519142 C15.9155355,48.7186506 16.1911929,48.9963225 16.5380876,48.9963225 L16.5380876,48.9963225 Z M8.90227533,48.4263093 C9.15212208,48.4263093 9.3544773,48.2261759 9.38338518,47.9495518 L10.4013558,37.9449807 L9.38441761,27.563195 C9.3544773,27.2855231 9.15212208,27.0853897 8.90227533,27.0853897 C8.6493313,27.0853897 8.44697609,27.2865709 8.42116547,27.563195 C8.42116547,27.5642428 7.52502093,37.9449807 7.52502093,37.9449807 L8.42116547,47.9474562 C8.44594366,48.2251281 8.64829888,48.4263093 8.90227533,48.4263093 L8.90227533,48.4263093 Z M40.1868051,16.0109959 C39.5621882,16.0109959 39.0614623,16.5149966 39.0490732,17.1604528 L38.5411203,37.960698 L39.0490732,47.9694604 C39.0614623,48.6065341 39.5611558,49.1105348 40.1868051,49.1105348 C40.8103895,49.1105348 41.3080182,48.6075819 41.3224721,47.9621257 L41.3224721,47.9705082 L41.8923705,37.9617458 L41.3224721,17.1583572 C41.3080182,16.5149966 40.8103895,16.0109959 40.1868051,16.0109959 L40.1868051,16.0109959 Z M24.2977907,49.1021522 C24.7293442,49.1021522 25.0855307,48.7448461 25.1061792,48.289045 L25.8990813,37.9544111 L25.1061792,18.1736933 C25.0844983,17.7168445 24.7293442,17.3605862 24.2977907,17.3605862 C23.8621076,17.3605862 23.5069535,17.7178923 23.4883699,18.1736933 C23.4883699,18.1747411 22.7863211,37.9544111 22.7863211,37.9544111 L23.4894023,48.2932363 C23.5069535,48.7448461 23.8621076,49.1021522 24.2977907,49.1021522 L24.2977907,49.1021522 Z M33.151864,48.1266332 L33.151864,48.1213941 L33.8332642,37.9575546 L33.151864,15.80248 C33.1353452,15.2523753 32.7079214,14.8206741 32.1803524,14.8206741 C31.6496862,14.8206741 31.2222624,15.2513275 31.2078085,15.80248 L30.6028077,37.9565067 L31.2088409,48.1255854 C31.2232948,48.670451 31.6507186,49.1011044 32.1803524,49.1011044 C32.7089538,49.1011044 33.1343128,48.670451 33.151864,48.1224419 L33.151864,48.1266332 L33.151864,48.1266332 Z M80.120988,26.1172054 C79.1814817,15.3162923 70.2572035,6.84363181 59.3713187,6.84363181 C56.7076633,6.84363181 54.1111155,7.37592361 51.8181005,8.27599971 C50.927118,8.62597109 50.6896604,8.98642066 50.681401,9.6853156 L50.681401,47.7211274 C50.6906928,48.4546004 51.2512994,49.0654786 51.9564454,49.137778 C51.9863857,49.1409215 84.4767873,49.1576866 84.687402,49.1576866 C91.2081956,49.1576866 96.4952419,43.791808 96.4952419,37.1727385 C96.4952419,30.553669 91.2092281,25.1867426 84.6884344,25.1867426 C83.0706251,25.1867426 81.5271503,25.5189011 80.120988,26.1172054 Z M48.2675923,9.65178541 C47.5583166,9.65178541 46.9760292,10.242755 46.9657049,10.9688933 L46.4329738,37.9659371 L46.9667373,47.764088 C46.9760292,48.479748 47.5583166,49.0696698 48.2675923,49.0696698 C48.9748032,49.0696698 49.5570906,48.479748 49.5674149,47.7536098 L49.5674149,47.7651358 L50.1466051,37.9659371 L49.5674149,10.9667976 C49.5570906,10.242755 48.9748032,9.65178541 48.2675923,9.65178541 L48.2675923,9.65178541 Z" id="Shape"></path>
                <path d="M143.71314,0.767926911 C128.89285,0.767926911 116.767158,12.8952351 116.767158,27.7175007 C116.767158,42.5397663 128.89285,54.6670745 143.71314,54.6670745 C158.53343,54.6670745 170.659122,42.5397663 170.659122,27.7175007 C170.659122,12.8952351 158.53343,0.767926911 143.71314,0.767926911 L143.71314,0.767926911 Z M155.973562,39.710061 C155.434642,40.5185482 154.491533,40.788044 153.683153,40.2490525 C147.350848,36.3413643 139.401783,35.5328771 129.970689,37.688843 C129.02758,37.9583387 128.2192,37.2845994 127.949741,36.4761122 C127.680281,35.5328771 128.35393,34.7243899 129.16231,34.4548941 C139.401783,32.1641804 148.293957,33.1074154 155.299912,37.4193472 C156.243022,37.8235909 156.512482,38.9015738 155.973562,39.710061 L155.973562,39.710061 Z M159.34181,32.2989282 C158.66816,33.2421633 157.455591,33.6464069 156.512482,32.9726676 C149.237066,28.5259879 138.189214,27.1785092 129.701229,29.8734666 C128.62339,30.1429623 127.410821,29.6039709 127.141361,28.5259879 C126.871901,27.4480049 127.410821,26.2352741 128.48866,25.9657784 C138.323944,23.0013253 150.449636,24.4835518 158.80289,29.6039709 C159.611269,30.0082145 159.880729,31.3556931 159.34181,32.2989282 L159.34181,32.2989282 Z M159.611269,24.7530476 C150.988555,19.6326286 136.572455,19.0936371 128.35393,21.6538466 C127.006631,22.0580902 125.659332,21.249603 125.255142,20.0368722 C124.850953,18.6893935 125.659332,17.3419148 126.871901,16.9376712 C136.437725,14.1079659 152.201124,14.6469574 162.171138,20.5758636 C163.383707,21.249603 163.787897,22.8665774 163.114247,24.0793082 C162.305868,25.0225433 160.823839,25.4267869 159.611269,24.7530476 L159.611269,24.7530476 Z" id="Shape-Copy"></path>
            </g>
        </g>
    </g>
</svg>