<?xml version="1.0" encoding="UTF-8" standalone="no"?>
<svg width="291px" height="130px" viewBox="0 0 291 130" version="1.1" xmlns="http://www.w3.org/2000/svg" xmlns:xlink="http://www.w3.org/1999/xlink">
    <!-- Generator: Sketch 3.6.1 (26313) - http://www.bohemiancoding.com/sketch -->
    <title>Artboard 6 Copy 9</title>
    <desc>Created with Sketch.</desc>
    <defs></defs>
    <g id="Page-1" stroke="none" stroke-width="1" fill="none" fill-rule="evenodd">
        <g id="Artboard-6-Copy-9">
            <g id="Group-5" transform="translate(79.000000, 5.000000)">
                <g id="noun_403416_cc" transform="translate(102.596788, 86.779800) rotate(-30.000000) translate(-102.596788, -86.779800) translate(71.596788, 55.279800)" fill="#FFFFFF">
                    <g id="Group" transform="translate(0.000000, 0.000000)">
                        <path d="M61.5835475,14.7557372 C61.5835475,13.4831976 61.0883223,12.2867409 60.1887079,11.3872102 C58.3336318,9.52990827 55.3128251,9.53024492 53.4557304,11.3872102 L48.6007062,16.2457533 L48.6007062,5.00464944 C48.6007062,2.41277563 46.4933075,0.30399559 43.9031314,0.30399559 C41.3129553,0.30399559 39.2055565,2.41277563 39.2055565,5.00464944 L39.2055565,15.2081958 L33.1030492,21.314703 L33.1030492,12.6156487 C33.1030492,11.3606148 32.6145526,10.1806541 31.7273861,9.29155957 L26.139617,3.70046459 C25.252787,2.81271667 24.0729263,2.32389984 22.8177052,2.32389984 L18.6698573,2.32389984 C16.0803541,2.32389984 13.9729554,4.43267989 13.9722825,7.02489035 C13.9729554,9.61710081 16.0806905,11.7258808 18.6708666,11.7255442 L20.871793,11.7252075 L23.7075631,14.5628364 L23.7075631,20.7881813 C23.7075631,24.4044832 20.7913862,27.3464738 17.2070588,27.3464738 C15.4566125,27.3464738 13.810796,26.6644194 12.5730693,25.4252082 C11.3350062,24.1863335 10.6533986,22.5394383 10.6533986,20.7878446 L10.6533986,17.4900143 L13.3895854,14.7527074 C14.2770883,13.8646228 14.7655849,12.6843254 14.7655849,11.4286183 C14.7655849,10.1729111 14.2770883,8.99261374 13.3895854,8.10452917 C11.5587323,6.27213936 8.57796073,6.27213936 6.74609831,8.10452917 L1.69527176,13.1576563 C0.807768902,14.0464142 0.319272257,15.2270482 0.319608687,16.4817454 L0.319608687,28.8674617 C0.319945117,32.4295628 3.05142188,35.7768808 5.56691047,38.2926716 L10.7657663,43.494935 C12.9010888,45.6319937 14.0765759,48.4716424 14.075903,51.4924092 L14.075903,62.9866744 L16.0944842,62.9866744 L16.0944842,51.4930825 C16.095157,47.9326646 14.7097375,44.58501 12.1932396,42.0668627 L6.99404736,36.8639259 C4.85973419,34.7295605 2.3385263,31.8899117 2.33818987,28.8674617 L2.33818987,16.4814088 C2.33818987,15.766026 2.61675407,15.0927246 3.12274509,14.5857286 L8.17289877,9.53260148 C9.21751453,8.48763768 10.9174963,8.48763768 11.9621121,9.53260148 C12.4681031,10.0392608 12.7466673,10.7125622 12.7466673,11.4286183 C12.7466673,12.1446743 12.4681031,12.8179757 11.9621121,13.3242984 L8.96216401,16.3258761 C8.75896017,16.512044 8.634481,16.7793446 8.634481,17.0705475 L8.634481,20.7881813 C8.634481,23.079426 9.52602102,25.2336539 11.1452596,26.8539538 C12.7644981,28.4742536 14.9173149,29.3667147 17.2070588,29.3667147 C21.9046337,29.3667147 25.7261443,25.5184604 25.7261443,20.7885179 L25.7261443,14.1447162 C25.7261443,13.8770789 25.6198323,13.6198777 25.4304221,13.43068 L22.0035442,10.0012193 C21.814134,9.81168492 21.5574377,9.70530329 21.2896393,9.70530329 L18.6705302,9.70563994 C17.1932652,9.70563994 15.9912001,8.50278696 15.9908637,7.02489035 C15.9912001,5.54665708 17.1929288,4.34414075 18.6701938,4.3438041 L22.8177052,4.3438041 C23.5336287,4.3438041 24.2064891,4.62255089 24.7124801,5.12887355 L30.2995764,10.7192952 C30.8055674,11.2262912 31.084468,11.8995926 31.084468,12.615312 L31.084468,23.7523908 C31.084468,23.818711 31.0915331,23.8850312 31.1043174,23.9503414 C31.1103732,23.9789567 31.1208025,24.0052155 31.1288768,24.0328208 C31.1389697,24.0685058 31.1473805,24.1041908 31.161847,24.1388658 C31.1753042,24.1715209 31.1938078,24.2008095 31.2106294,24.2314447 C31.2254323,24.2587134 31.2372073,24.2866555 31.2547017,24.3125776 C31.2900269,24.3657684 31.3307349,24.4149194 31.3751437,24.4600306 C31.3771623,24.4620505 31.3781716,24.464407 31.3801902,24.4664269 C31.3811995,24.4671002 31.3822088,24.4677735 31.383218,24.4687835 C31.429309,24.514568 31.4797735,24.555976 31.5342752,24.5923343 C31.5588346,24.6091668 31.5860855,24.6202763 31.6119906,24.6347523 C31.643615,24.6522581 31.6742302,24.6711106 31.7078732,24.6852499 C31.7405069,24.6987159 31.7744864,24.7064589 31.8084658,24.7165584 C31.8377352,24.7253113 31.8659954,24.7367575 31.8966105,24.7428172 C31.959523,24.7552732 32.0231083,24.7616696 32.08703,24.7620063 C32.089385,24.7620063 32.09174,24.7626796 32.094095,24.7626796 C32.0974594,24.7626796 32.1004872,24.7616696 32.1031787,24.7616696 C32.1664275,24.761333 32.22934,24.7549366 32.2915796,24.7428172 C32.3211854,24.7367575 32.3487727,24.7259846 32.3773693,24.7172317 C32.4120216,24.7071322 32.4466739,24.6990526 32.4803169,24.6852499 C32.5132871,24.6714472 32.5428929,24.6529314 32.5735081,24.6360989 C32.6004225,24.6216229 32.6283462,24.6095035 32.6539149,24.5923343 C32.7067344,24.556986 32.7561897,24.5162512 32.8012713,24.4718133 C32.8032899,24.4697934 32.8056449,24.4687835 32.8076635,24.4667636 L40.928752,16.3403521 C41.1178258,16.1508178 41.2244742,15.8939533 41.2244742,15.6259793 L41.2244742,5.00464944 C41.2244742,3.52641618 42.4262028,2.32389984 43.9034678,2.32389984 C45.3807328,2.32389984 46.5824615,3.52641618 46.5824615,5.00464944 L46.5824615,17.1553835 C46.5824615,17.8714395 46.3038973,18.5444043 45.7979063,19.0510636 L36.5972132,28.2584605 C36.202917,28.6526785 36.202917,29.2923148 36.5972132,29.6868695 C36.646332,29.7360205 36.6998244,29.7791118 36.7556719,29.8161434 C36.9235505,29.9269014 37.1169979,29.9824488 37.3107817,29.9824488 C37.5045655,29.9824488 37.6980128,29.9269014 37.8658915,29.8161434 C37.9217389,29.7791118 37.9748949,29.7360205 38.0243501,29.6865328 L54.8828673,12.8159558 C55.9533882,11.7460799 57.6934051,11.7464165 58.761571,12.8159558 C59.2796735,13.3343979 59.5649663,14.0231853 59.5649663,14.7564105 C59.5649663,15.4896358 59.2796735,16.1784231 58.761571,16.6968652 L51.5145282,23.9489948 C51.5118367,23.951688 51.5088088,23.9537079 51.5064538,23.9564011 L41.902381,33.5677789 C41.7052329,33.7650562 41.6066589,34.0236039 41.6066589,34.281815 C41.6066589,34.5400261 41.7052329,34.7985738 41.902381,34.9958512 C42.0995291,35.1931285 42.3579075,35.2917671 42.6159495,35.2917671 C42.8746643,35.2917671 43.1327062,35.1931285 43.3295179,34.9958512 L52.93931,25.3794237 C54.0091581,24.3152708 55.744465,24.3166174 56.811958,25.3844734 C57.3297241,25.9029155 57.6153533,26.5920395 57.6153533,27.3252648 C57.6153533,28.0581533 57.3300605,28.7472774 56.8079209,29.2697593 L40.2891982,45.9975963 C37.7730368,48.515407 36.3872808,51.862725 36.3879537,55.4231429 L36.3876172,62.9873477 L38.4061984,62.9873477 L38.4065348,55.4231429 C38.405862,52.4017028 39.5813491,49.562054 41.7207087,47.4216288 L58.2394314,30.6937918 C59.1390457,29.7942611 59.634271,28.5974678 59.634271,27.3249281 C59.634271,26.0523884 59.1387093,24.8562685 58.2394314,23.9564011 C57.5174522,23.2339487 56.6188471,22.7963028 55.6812161,22.636057 L60.1887079,18.1252742 C61.0883223,17.2250702 61.5838839,16.0282769 61.5835475,14.7557372 L61.5835475,14.7557372 Z" id="Shape"></path>
                    </g>
                </g>
                <g id="Group-4">
                    <rect id="Rectangle-12" stroke="#FFFFFF" stroke-width="2" stroke-linecap="square" x="0" y="0" width="76.4776119" height="76.6430412"></rect>
                    <g id="noun_15734" transform="translate(16.060299, 19.927191)" fill="#FFFFFF">
                        <g id="Group">
                            <path d="M21.1607797,37.2810275 C20.7984652,37.2810275 20.4441921,37.1182887 20.2083079,36.817848 L0.269390495,11.4064645 C-0.016529765,11.0420907 -0.0696930634,10.5453799 0.132684871,10.1286972 C0.335062805,9.71201458 0.757688689,9.44734061 1.22141561,9.44734061 L11.7231774,9.44734061 L9.31251222,5.40390923 C8.97030141,4.82985285 9.15793658,4.08635148 9.7324576,3.74299066 C10.3056384,3.40141817 11.0485843,3.58740528 11.3921354,4.16280292 L14.8946585,10.0383862 C15.117587,10.4121488 15.1220545,10.8780107 14.9071676,11.2566912 C14.6918339,11.6358188 14.2897585,11.870091 13.8546236,11.870091 L3.71026213,11.870091 L18.5544379,30.7875735 L14.575232,15.2867101 C14.4090409,14.6384377 14.799054,13.9785411 15.4463953,13.8117786 C16.0982041,13.6441219 16.7540337,14.036215 16.9202249,14.6835932 L22.3326061,35.7685409 C22.3384138,35.7931306 22.3442216,35.8159319 22.3486891,35.8405215 C22.3536033,35.8145906 22.3594111,35.7877655 22.3665591,35.7618346 L27.9129654,14.6764398 C28.083624,14.0290616 28.7515159,13.6441219 29.3917092,13.8135669 C30.0390506,13.983459 30.4245962,14.6464852 30.254831,15.2938634 L26.0321462,31.3428524 L40.6676895,14.4609452 C41.1072919,13.9548456 41.8716818,13.9029838 42.3756163,14.3397853 C42.880891,14.777928 42.9345011,15.5433365 42.4962389,16.0480948 L24.4515432,36.8643448 C24.0820807,37.2904162 23.4709261,37.4044228 22.9719059,37.1415371 C22.6390768,36.9653859 22.4165951,36.6510855 22.3486891,36.2996772 C22.2785493,36.6627097 22.0440053,36.9832692 21.6959867,37.156738 C21.5248813,37.2403428 21.3417137,37.2810275 21.1607797,37.2810275 L21.1607797,37.2810275 Z" id="Shape"></path>
                            <path d="M43.4755158,11.870091 L31.1134853,11.870091 C30.6850517,11.870091 30.2887841,11.6443134 30.0707699,11.2750217 C29.8532024,10.906177 29.8465011,10.4492568 30.0528998,10.0741529 L33.285139,4.19901675 C33.6067993,3.61333618 34.3439375,3.40007692 34.9287338,3.72242477 C35.5148703,4.04521972 35.7288638,4.78156774 35.4058632,5.36769539 L33.1622827,9.44734061 L40.9741603,9.44734061 L35.6877627,2.75985205 L8.95153789,2.75985205 L4.66094699,7.3916465 C4.20660183,7.88299227 3.44131838,7.91160567 2.94989293,7.45647374 C2.46025449,7.00134182 2.43032221,6.23503914 2.88511412,5.74414046 L7.5353391,0.724723824 C7.76496881,0.477486147 8.08573561,0.337101643 8.42303216,0.337101643 L36.2730057,0.337101643 C36.6433618,0.337101643 36.9922739,0.506099549 37.2219036,0.796257329 L44.4235202,9.90604921 C44.7121209,10.270423 44.7670712,10.7675809 44.5642465,11.1860519 C44.3627621,11.6040758 43.9396895,11.870091 43.4755158,11.870091 L43.4755158,11.870091 Z" id="Shape"></path>
                            <path d="M27.4260074,11.870091 L17.270924,11.870091 C16.8451708,11.870091 16.451137,11.6461017 16.2322293,11.2812808 C16.0137683,10.9151187 16.0030463,10.4617751 16.204084,10.0862242 L19.3527809,4.21108803 C19.6690801,3.62272495 20.4026443,3.40141817 20.9910146,3.71571851 C21.5802784,4.03225427 21.8018666,4.76681395 21.486014,5.35562411 L19.2929163,9.44734061 L25.4022281,9.44734061 L23.2100239,5.35562411 C22.8941713,4.76681395 23.1153128,4.03225427 23.7045766,3.71571851 C24.2942871,3.39739441 25.0278513,3.62272495 25.3432571,4.21108803 L28.4928474,10.0862242 C28.6938851,10.461328 28.6840566,10.9151187 28.4647021,11.2808338 C28.2466879,11.6461017 27.8513138,11.870091 27.4260074,11.870091 L27.4260074,11.870091 Z" id="Shape"></path>
                        </g>
                    </g>
                </g>
            </g>
        </g>
    </g>
</svg>