<?xml version="1.0" encoding="UTF-8" standalone="no"?>
<svg width="61px" height="42px" viewBox="0 0 61 42" version="1.1" xmlns="http://www.w3.org/2000/svg" xmlns:xlink="http://www.w3.org/1999/xlink">
    <!-- Generator: Sketch 3.8.3 (29802) - http://www.bohemiancoding.com/sketch -->
    <title>Shape</title>
    <desc>Created with Sketch.</desc>
    <defs>
        <path d="M151.396354,158.589867 C151.323332,158.589867 151.265365,158.649426 151.255955,158.734398 L151,160.785229 L151.255955,162.800721 C151.265365,162.885692 151.323332,162.944854 151.396354,162.944854 C151.467118,162.944854 151.524708,162.886089 151.536,162.801515 L151.536,162.801515 L151.536,162.801118 C151.536,162.801118 151.536,162.801118 151.536,162.801515 L151.839383,160.785229 L151.536,158.734001 C151.525085,158.649426 151.466742,158.589867 151.396354,158.589867 L151.396354,158.589867 Z M152.835726,157.469355 C152.823681,157.381207 152.763833,157.320456 152.690058,157.320456 C152.615906,157.320456 152.554552,157.383192 152.544389,157.469355 C152.544389,157.470149 152.200355,160.785229 152.200355,160.785229 L152.544389,164.027645 C152.554175,164.114602 152.615529,164.177338 152.690058,164.177338 C152.763456,164.177338 152.823305,164.11619 152.83535,164.02844 L153.226811,160.785229 L152.835726,157.469355 L152.835726,157.469355 Z M158.257461,154.410778 C158.116309,154.410778 157.999624,154.532677 157.992848,154.687531 L157.718826,160.788008 L157.992848,164.730447 C158,164.884507 158.116309,165.006009 158.257461,165.006009 C158.39786,165.006009 158.514169,164.88411 158.52245,164.729653 L158.52245,164.730844 L158.832231,160.788008 L158.52245,154.687531 C158.514169,154.532677 158.39786,154.410778 158.257461,154.410778 L158.257461,154.410778 Z M155.451363,156.531095 C155.342959,156.531095 155.254503,156.622419 155.245846,156.744318 L154.937194,160.78642 L155.245846,164.697094 C155.254127,164.818198 155.342959,164.909522 155.451363,164.909522 C155.558638,164.909522 155.647094,164.818198 155.656504,164.697094 L156.007313,160.78642 L155.656504,156.743524 C155.647094,156.622419 155.558638,156.531095 155.451363,156.531095 L155.451363,156.531095 Z M161.109104,165.005612 C161.284132,165.005612 161.426413,164.856713 161.433565,164.666123 L161.702318,160.789993 L161.433941,152.668068 C161.426789,152.477478 161.284508,152.32858 161.10948,152.32858 C160.932946,152.32858 160.790289,152.477875 160.784643,152.668466 C160.784643,152.668863 160.546378,160.789596 160.546378,160.789596 L160.784643,164.667314 C160.790289,164.856316 160.932946,165.005612 161.109104,165.005612 L161.109104,165.005612 Z M166.947142,165.023877 C167.188041,165.023877 167.386783,164.814624 167.3913,164.557328 L167.3913,164.560107 L167.3913,164.557328 L167.578749,160.792376 L167.3913,151.412158 C167.387159,151.155258 167.188041,150.945609 166.947142,150.945609 C166.705867,150.945609 166.506748,151.154861 166.502984,151.412555 L166.335484,160.789199 C166.335484,160.795155 166.502984,164.55971 166.502984,164.55971 C166.506748,164.814624 166.706243,165.023877 166.947142,165.023877 L166.947142,165.023877 Z M164.005915,165.009185 C164.215572,165.009185 164.384578,164.831698 164.390224,164.605372 L164.390224,164.608152 L164.618326,160.790787 L164.389848,152.610097 C164.384202,152.383771 164.215196,152.206681 164.005539,152.206681 C163.794375,152.206681 163.62537,152.383771 163.620853,152.610097 L163.417971,160.791184 L163.621229,164.607755 C163.625746,164.831698 163.794752,165.009185 164.005915,165.009185 L164.005915,165.009185 Z M156.848954,164.97345 C156.973544,164.97345 157.074421,164.868228 157.083831,164.729653 L157.414314,160.78642 L157.083831,157.035365 C157.074797,156.89679 156.973921,156.792362 156.848954,156.792362 C156.722482,156.792362 156.621606,156.897584 156.613701,157.036953 L156.32274,160.78642 L156.613701,164.729256 C156.621982,164.868228 156.722482,164.97345 156.848954,164.97345 L156.848954,164.97345 Z M154.065064,164.757447 C154.156154,164.757447 154.22993,164.681608 154.240469,164.576784 L154.611604,160.785626 L154.240845,156.851525 C154.22993,156.746303 154.156154,156.670464 154.065064,156.670464 C153.972845,156.670464 153.89907,156.7467 153.88966,156.851525 C153.88966,156.851922 153.56294,160.785626 153.56294,160.785626 L153.88966,164.575989 C153.898693,164.681211 153.972469,164.757447 154.065064,164.757447 L154.065064,164.757447 Z M165.470882,152.473905 C165.243157,152.473905 165.060601,152.664892 165.056084,152.909483 L164.870893,160.791582 L165.056084,164.584328 C165.060601,164.825742 165.242781,165.016729 165.470882,165.016729 C165.698231,165.016729 165.879658,164.826139 165.884928,164.581548 L165.884928,164.584725 L166.092703,160.791979 L165.884928,152.908689 C165.879658,152.664892 165.698231,152.473905 165.470882,152.473905 L165.470882,152.473905 Z M159.678013,165.013553 C159.83535,165.013553 159.965209,164.878154 159.972738,164.705432 L160.261816,160.789199 L159.972738,153.293443 C159.964833,153.120323 159.83535,152.985322 159.678013,152.985322 C159.51917,152.985322 159.389687,153.12072 159.382911,153.293443 C159.382911,153.29384 159.126956,160.789199 159.126956,160.789199 L159.383288,164.70702 C159.389687,164.878154 159.51917,165.013553 159.678013,165.013553 L159.678013,165.013553 Z M162.90606,164.643887 L162.90606,164.641902 L163.154487,160.79039 L162.90606,152.394889 C162.900038,152.186431 162.744206,152.022841 162.551863,152.022841 C162.358391,152.022841 162.20256,152.186034 162.19729,152.394889 L161.976717,160.789993 L162.197666,164.64349 C162.202936,164.849963 162.358768,165.013156 162.551863,165.013156 C162.744582,165.013156 162.899661,164.849963 162.90606,164.642299 L162.90606,164.643887 L162.90606,164.643887 Z M180.03022,156.303578 C179.687692,152.210652 176.434049,149 172.465236,149 C171.494112,149 170.547454,149.201708 169.711459,149.542785 C169.386621,149.675404 169.300048,149.811994 169.297037,150.076835 L169.297037,164.490224 C169.300425,164.768168 169.504813,164.999656 169.761897,165.027053 C169.772813,165.028244 181.618272,165.034597 181.695058,165.034597 C184.072431,165.034597 186,163.001237 186,160.49299 C186,157.984743 184.072807,155.950986 181.695435,155.950986 C181.105608,155.950986 180.542883,156.076855 180.03022,156.303578 Z M168.417003,150.064129 C168.158413,150.064129 167.94612,150.288073 167.942356,150.563237 L167.748131,160.793567 L167.942733,164.506503 C167.94612,164.777698 168.158413,165.001244 168.417003,165.001244 C168.67484,165.001244 168.887132,164.777698 168.890896,164.502533 L168.890896,164.506901 L169.102059,160.793567 L168.890896,150.562443 C168.887132,150.288073 168.67484,150.064129 168.417003,150.064129 L168.417003,150.064129 Z" id="path-1"></path>
        <filter x="-50%" y="-50%" width="200%" height="200%" filterUnits="objectBoundingBox" id="filter-2">
            <feMorphology radius="4" operator="dilate" in="SourceAlpha" result="shadowSpreadOuter1"></feMorphology>
            <feOffset dx="0" dy="0" in="shadowSpreadOuter1" result="shadowOffsetOuter1"></feOffset>
            <feGaussianBlur stdDeviation="2.5" in="shadowOffsetOuter1" result="shadowBlurOuter1"></feGaussianBlur>
            <feColorMatrix values="0 0 0 0 0.219414328   0 0 0 0 0.219414328   0 0 0 0 0.219414328  0 0 0 0.5 0" type="matrix" in="shadowBlurOuter1"></feColorMatrix>
        </filter>
    </defs>
    <g id="Page-1" stroke="none" stroke-width="1" fill="none" fill-rule="evenodd">
        <g id="iPhone-6-Copy-2" transform="translate(-138.000000, -136.000000)">
            <g id="Shape">
                <use fill="black" fill-opacity="1" filter="url(#filter-2)" xlink:href="#path-1"></use>
                <use fill="#FFFFFF" fill-rule="evenodd" xlink:href="#path-1"></use>
            </g>
        </g>
    </g>
</svg>