<?xml version="1.0" encoding="UTF-8" standalone="no"?>
<svg width="48px" height="49px" viewBox="0 0 48 49" version="1.1" xmlns="http://www.w3.org/2000/svg" xmlns:xlink="http://www.w3.org/1999/xlink">
    <!-- Generator: Sketch 3.8.3 (29802) - http://www.bohemiancoding.com/sketch -->
    <title>Shape Copy</title>
    <desc>Created with Sketch.</desc>
    <defs>
        <path d="M170.05712,202 C163.975704,202 159,207.172363 159,213.494141 C159,219.815918 163.975704,224.988281 170.05712,224.988281 C176.138536,224.988281 181.11424,219.815918 181.11424,213.494141 C181.11424,207.172363 176.138536,202 170.05712,202 L170.05712,202 Z M175.088109,218.609033 C174.866967,218.953857 174.479968,219.068799 174.148254,218.838916 C171.549831,217.172266 168.287981,216.827441 164.417989,217.746973 C164.03099,217.861914 163.699276,217.574561 163.588705,217.229736 C163.478134,216.827441 163.754562,216.482617 164.086275,216.367676 C168.287981,215.390674 171.93683,215.792969 174.811681,217.632031 C175.198681,217.804443 175.309252,218.264209 175.088109,218.609033 L175.088109,218.609033 Z M176.470249,215.448145 C176.193821,215.850439 175.696251,216.022852 175.309252,215.735498 C172.323829,213.838965 167.79041,213.264258 164.307418,214.413672 C163.865133,214.528613 163.367562,214.29873 163.256991,213.838965 C163.14642,213.379199 163.367562,212.861963 163.809847,212.747021 C167.845696,211.482666 172.8214,212.114844 176.249107,214.29873 C176.580821,214.471143 176.691392,215.04585 176.470249,215.448145 L176.470249,215.448145 Z M176.580821,212.229785 C173.042542,210.045898 167.126983,209.816016 163.754562,210.907959 C163.201706,211.080371 162.64885,210.735547 162.482993,210.218311 C162.317136,209.643604 162.64885,209.068896 163.14642,208.896484 C167.071697,207.6896 173.540113,207.919482 177.631247,210.448193 C178.128817,210.735547 178.294674,211.425195 178.018246,211.942432 C177.686533,212.344727 177.078391,212.517139 176.580821,212.229785 L176.580821,212.229785 Z" id="path-1"></path>
        <filter x="-50%" y="-50%" width="200%" height="200%" filterUnits="objectBoundingBox" id="filter-2">
            <feMorphology radius="4" operator="dilate" in="SourceAlpha" result="shadowSpreadOuter1"></feMorphology>
            <feOffset dx="0" dy="0" in="shadowSpreadOuter1" result="shadowOffsetOuter1"></feOffset>
            <feGaussianBlur stdDeviation="2.5" in="shadowOffsetOuter1" result="shadowBlurOuter1"></feGaussianBlur>
            <feColorMatrix values="0 0 0 0 0.219414328   0 0 0 0 0.219414328   0 0 0 0 0.219414328  0 0 0 0.5 0" type="matrix" in="shadowBlurOuter1"></feColorMatrix>
        </filter>
    </defs>
    <g id="Page-1" stroke="none" stroke-width="1" fill="none" fill-rule="evenodd">
        <g id="iPhone-6-Copy-2" transform="translate(-146.000000, -189.000000)">
            <g id="Shape-Copy">
                <use fill="black" fill-opacity="1" filter="url(#filter-2)" xlink:href="#path-1"></use>
                <use fill="#FFFFFF" fill-rule="evenodd" xlink:href="#path-1"></use>
            </g>
        </g>
    </g>
</svg>