<?xml version="1.0" encoding="UTF-8" standalone="no"?>
<svg width="40px" height="20px" viewBox="0 0 40 20" version="1.1" xmlns="http://www.w3.org/2000/svg" xmlns:xlink="http://www.w3.org/1999/xlink">
    <!-- Generator: Sketch 40.1 (33804) - http://www.bohemiancoding.com/sketch -->
    <title>Group 3</title>
    <desc>Created with Sketch.</desc>
    <defs></defs>
    <g id="Page-1" stroke="none" stroke-width="1" fill="none" fill-rule="evenodd">
        <g id="Artboard-Copy-8" transform="translate(-240.000000, -5184.000000)" fill="#FFFFFF">
            <g id="footer" transform="translate(0.000000, 4778.000000)">
                <g id="Group-31">
                    <g transform="translate(240.000000, 406.000000)">
                        <g id="Group-3">
                            <path d="M5.73129032,16.6086957 C4.17238429,16.7454418 3.81684432,15.9249649 3.81684432,15.213885 L3.81684432,0.5 L0.07,0.5 L0.07,15.213885 C0.07,19.042777 2.58612903,20.1914446 5.73129032,19.6718093 L5.73129032,16.6086957 Z M11.8848668,4.21949509 L11.8848668,0.527349229 L8.16537167,0.527349229 L8.16537167,4.21949509 L11.8848668,4.21949509 Z M8.16537167,5.77840112 L8.16537167,19.64446 L11.912216,19.64446 L11.912216,5.77840112 L8.16537167,5.77840112 Z M18.9956662,10.8927069 C18.5307293,10.7559607 18.0657924,10.3730715 18.0657924,9.90813464 C18.0657924,9.03295933 19.0777139,8.56802244 19.7067461,8.56802244 C20.4725245,8.56802244 21.4297475,8.84151473 22.4143198,9.5799439 L24.4108135,7.55610098 C22.797209,5.88779804 21.1562553,5.39551192 19.7340954,5.39551192 C17.0812202,5.39551192 14.5377419,6.92706872 14.5377419,9.7713885 C14.5650912,12.4516129 16.9171248,13.8464236 19.1871108,14.256662 C19.8981907,14.3934081 20.9648107,14.5301543 20.9648107,15.5420757 C20.9648107,16.2805049 20.0349369,16.8001403 19.2965077,16.772791 C18.0931417,16.7180926 16.8350771,16.171108 15.9599018,15.1591865 L13.9634081,17.2924264 C15.4676157,19.2889201 17.4367602,20 19.2418093,20 C21.5391445,20 24.6569565,18.8239832 24.6569565,15.5420757 C24.6569565,12.7798036 22.1681767,11.4670407 19.7614446,11.0568022 C19.5153015,11.0021038 19.2691585,10.9747546 18.9956662,10.8927069 L18.9956662,10.8927069 Z M27.1457363,5.77840112 L27.1457363,19.64446 L30.8925806,19.64446 L30.8925806,9.36115007 C33.1625666,7.8569425 36.2530295,9.03295933 36.2530295,11.7952314 L36.2530295,19.64446 L39.9998738,19.64446 L39.9998738,11.631136 C39.9998738,8.07573633 37.511094,5.75105189 34.4479804,5.58695652 C32.8890743,5.50490884 31.5489621,5.96984572 30.7558345,7.00911641 L30.2088499,5.77840112 L27.1457363,5.77840112 Z" id="lisn"></path>
                        </g>
                    </g>
                </g>
            </g>
        </g>
    </g>
</svg>