<?xml version="1.0" encoding="UTF-8" standalone="no"?>
<svg width="114px" height="40px" viewBox="0 0 114 40" version="1.1" xmlns="http://www.w3.org/2000/svg" xmlns:xlink="http://www.w3.org/1999/xlink">
    <!-- Generator: Sketch 40.1 (33804) - http://www.bohemiancoding.com/sketch -->
    <title>Group 17</title>
    <desc>Created with Sketch.</desc>
    <defs></defs>
    <g id="Page-1" stroke="none" stroke-width="1" fill="none" fill-rule="evenodd">
        <g id="Artboard-Copy-8" transform="translate(-678.000000, -129.000000)">
            <g id="splash" transform="translate(-3.000000, 0.000000)">
                <g id="Group-17" transform="translate(681.000000, 129.000000)">
                    <g id="Group-3">
                        <g id="Group-14"></g>
                    </g>
                    <path d="M9.03626667,26.2048 C6.57386667,26.4208 6.01226667,25.1248 6.01226667,24.0016 L6.01226667,0.76 L0.0938666667,0.76 L0.0938666667,24.0016 C0.0938666667,30.0496 4.06826667,31.864 9.03626667,31.0432 L9.03626667,26.2048 Z M18.7562667,6.6352 L18.7562667,0.8032 L12.8810667,0.8032 L12.8810667,6.6352 L18.7562667,6.6352 Z M12.8810667,9.0976 L12.8810667,31 L18.7994667,31 L18.7994667,9.0976 L12.8810667,9.0976 Z M29.9882667,17.176 C29.2538667,16.96 28.5194667,16.3552 28.5194667,15.6208 C28.5194667,14.2384 30.1178667,13.504 31.1114667,13.504 C32.3210667,13.504 33.8330667,13.936 35.3882667,15.1024 L38.5418667,11.9056 C35.9930667,9.2704 33.4010667,8.4928 31.1546667,8.4928 C26.9642667,8.4928 22.9466667,10.912 22.9466667,15.4048 C22.9898667,19.6384 26.7050667,21.8416 30.2906667,22.4896 C31.4138667,22.7056 33.0986667,22.9216 33.0986667,24.52 C33.0986667,25.6864 31.6298667,26.5072 30.4634667,26.464 C28.5626667,26.3776 26.5754667,25.5136 25.1930667,23.9152 L22.0394667,27.2848 C24.4154667,30.4384 27.5258667,31.5616 30.3770667,31.5616 C34.0058667,31.5616 38.9306667,29.704 38.9306667,24.52 C38.9306667,20.1568 34.9994667,18.0832 31.1978667,17.4352 C30.8090667,17.3488 30.4202667,17.3056 29.9882667,17.176 L29.9882667,17.176 Z M42.8618667,9.0976 L42.8618667,31 L48.7802667,31 L48.7802667,14.7568 C52.3658667,12.3808 57.2474667,14.2384 57.2474667,18.6016 L57.2474667,31 L63.1658667,31 L63.1658667,18.3424 C63.1658667,12.7264 59.2346667,9.0544 54.3962667,8.7952 C51.9338667,8.6656 49.8170667,9.4 48.5642667,11.0416 L47.7002667,9.0976 L42.8618667,9.0976 Z" id="lisn" fill="#444750"></path>
                    <path d="M54.7470703,38.6816406 C54.7470703,38.1933569 55.9775268,36.2988446 58.4384766,32.9980469 C60.8994264,29.6972491 62.4716763,27.7539092 63.1552734,27.1679688 L72.9404297,14.921875 C73.2138686,14.6484361 73.4287102,14.3457048 73.5849609,14.0136719 L79.8251953,6.27929688 C80.4697298,5.40038623 80.9775372,4.9609375 81.3486328,4.9609375 C81.5439463,4.9609375 81.7001947,5.20019292 81.8173828,5.67871094 C81.9345709,6.15722896 81.9931641,6.53808452 81.9931641,6.82128906 C81.9931641,7.1044936 81.954102,7.35351455 81.8759766,7.56835938 C81.7978512,7.7832042 81.6660166,8.02245962 81.4804688,8.28613281 C81.2949209,8.54980601 81.1630863,8.75976484 81.0849609,8.91601562 C80.8896475,9.30664258 80.3330124,10.1464779 79.4150391,11.4355469 C78.4970657,12.7246158 77.8818375,13.5253891 77.5693359,13.8378906 L74.6689453,16.7089844 C72.9501867,18.3886803 70.8896604,20.8300621 68.4873047,24.0332031 C67.6474567,25.1855526 66.2802829,26.8749889 64.3857422,29.1015625 C62.4912015,31.3281361 61.1435587,32.9785103 60.3427734,34.0527344 C60.1083973,34.4433613 60.0498041,34.7265616 60.1669922,34.9023438 C61.6513746,34.3749974 63.047845,33.8183623 64.3564453,33.2324219 C64.5517588,33.1542965 64.6884762,33.2031241 64.7666016,33.3789062 C64.844727,33.5546884 64.8251959,33.7402334 64.7080078,33.9355469 L63.6240234,34.84375 C63.1357397,35.3320337 62.7548842,35.6738271 62.4814453,35.8691406 C62.4033199,35.9082033 62.2470715,35.9472654 62.0126953,35.9863281 C61.7783191,36.0253908 61.6416018,36.0644529 61.6025391,36.1035156 C61.5244137,36.1425783 61.475586,36.2402336 61.4560547,36.3964844 C61.4365233,36.5527352 61.3828129,36.6748042 61.2949219,36.7626953 C61.2070308,36.8505864 61.0068375,36.9140623 60.6943359,36.953125 C60.3818344,36.9921877 60.1865238,37.0507809 60.1083984,37.1289062 C59.7958969,37.3242197 59.4150413,37.5830062 58.9658203,37.9052734 C58.5165993,38.2275407 58.1552748,38.4765616 57.8818359,38.6523438 L56.9736328,39.2089844 C56.6611313,39.4042979 56.4023448,39.5556635 56.1972656,39.6630859 C55.9921865,39.7705083 55.8310553,39.8242188 55.7138672,39.8242188 C55.0693327,39.8242188 54.7470703,39.4433632 54.7470703,38.6816406 L54.7470703,38.6816406 Z M65.5283203,37.2460937 C65.5283203,36.6796847 65.7773413,35.9179735 66.2753906,34.9609375 C66.77344,34.0039015 67.2470681,33.2421903 67.6962891,32.6757812 L68.8388672,31.0644531 L69.8056641,30.0976562 L71.7392578,27.7246094 L74.1416016,24.8242187 C74.8447301,23.9843708 75.5185515,23.2617218 76.1630859,22.65625 C76.4365248,22.207029 76.8955046,21.9921874 77.5400391,22.0117187 C77.7744152,22.0117187 78.0234362,22.1582017 78.2871094,22.4511719 C78.5507826,22.7441421 78.6630861,23.0175769 78.6240234,23.2714844 C78.545898,24.0332069 77.3838003,25.3320221 75.1376953,27.1679687 C73.0087784,29.1211035 71.0068453,31.5136577 69.1318359,34.3457031 C68.8193344,34.8730495 68.7998033,35.1562498 69.0732422,35.1953125 C69.1513676,35.1953125 69.2490229,35.1757814 69.3662109,35.1367187 C71.1240322,34.4140589 74.2294699,32.7148571 78.6826172,30.0390625 C79.2490263,29.4335907 79.9423787,29.1308594 80.7626953,29.1308594 C80.7626953,28.8574205 81.182613,28.496096 82.0224609,28.046875 C82.139649,27.9687496 82.2519526,28.0322255 82.359375,28.2373047 C82.4667974,28.4423838 82.5205078,28.6425771 82.5205078,28.8378906 C82.5205078,28.9941414 81.9150451,29.5996041 80.7041016,30.6542969 C79.7080028,31.4941448 78.0673942,32.5878839 75.7822266,33.9355469 L74.8154297,34.609375 C74.268552,34.9609393 73.8046894,35.2294913 73.4238281,35.4150391 C73.0429668,35.6005869 72.6767596,35.7128904 72.3251953,35.7519531 C71.2119085,36.5918011 69.8056726,37.4316364 68.1064453,38.2714844 C67.9892572,38.2714844 67.7109397,38.3593741 67.2714844,38.5351562 C66.8320291,38.7109384 66.5732426,38.7988281 66.4951172,38.7988281 C65.8505827,38.7988281 65.5283203,38.2812552 65.5283203,37.2460937 L65.5283203,37.2460937 Z M80.7041016,15.9472656 C80.7041016,15.6347641 80.8066396,15.3857431 81.0117188,15.2001953 C81.2167979,15.0146475 81.4267567,14.8828129 81.6416016,14.8046875 C81.8564464,14.7265621 82.2275364,14.6289068 82.7548828,14.5117188 L82.9306641,14.5117188 C84.2587957,13.906247 85.0595689,13.5253914 85.3330078,13.3691406 L86.8271484,12.5195312 C87.0224619,12.5195312 87.2031242,12.6171865 87.3691406,12.8125 C87.5351571,13.0078135 87.6181641,13.2128896 87.6181641,13.4277344 C87.6181641,14.1503942 86.8466874,14.941402 85.3037109,15.8007812 C83.7607345,16.6601605 82.6084022,17.0898438 81.8466797,17.0898438 C81.0849571,17.0898438 80.7041016,16.7089882 80.7041016,15.9472656 L80.7041016,15.9472656 Z M77.3935547,38.2714844 C77.3935547,37.1972603 77.8623,35.8789141 78.7998047,34.3164062 C79.7373094,32.7538984 80.2646479,31.5722696 80.3818359,30.7714844 C81.6709049,28.2910032 83.0966719,25.8691524 84.6591797,23.5058594 C84.8154305,22.0996023 85.3915966,21.3964844 86.3876953,21.3964844 C86.875979,21.3964844 87.2080069,21.4794914 87.3837891,21.6455078 C87.5595712,21.8115243 87.6474609,22.1289039 87.6474609,22.5976562 C87.6474609,22.9882832 87.5595712,23.3544905 87.3837891,23.6962891 C87.2080069,24.0380876 86.9394549,24.4189432 86.578125,24.8388672 C86.2167951,25.2587912 85.9580086,25.5957019 85.8017578,25.8496094 C85.1181606,26.9238335 83.5556763,29.7363054 81.1142578,34.2871094 C80.6650368,35.0488319 80.5087884,35.4296875 80.6455078,35.4296875 C80.7236332,35.4687502 80.8798816,35.410157 81.1142578,35.2539062 C82.30567,34.3749956 83.3212849,33.7402363 84.1611328,33.3496094 C84.8056673,32.9003884 85.1865229,32.6757812 85.3037109,32.6757812 C85.5380871,32.6757812 85.7041011,32.7539055 85.8017578,32.9101562 C85.9580086,32.8320309 86.0361328,32.6953135 86.0361328,32.5 C86.0361328,32.3046865 86.114257,32.128907 86.2705078,31.9726562 C86.3876959,31.8554682 86.529296,31.8457026 86.6953125,31.9433594 C86.861329,32.0410161 86.963867,31.9628919 87.0029297,31.7089844 C87.1591805,31.1425753 87.5546843,30.7324231 88.1894531,30.4785156 C88.8242219,30.2246081 89.1416016,30.019532 89.1416016,29.8632812 C89.1416016,29.5898424 89.2294913,29.453125 89.4052734,29.453125 C89.9326198,29.453125 90.4306617,29.2431662 90.8994141,28.8232422 C91.3681664,28.4033182 91.5439459,27.9687522 91.4267578,27.5195312 C92.1884804,26.4062444 92.8915983,25.6250022 93.5361328,25.1757812 C93.6923836,24.9414051 94.0537081,24.8242188 94.6201172,24.8242188 C94.8544934,24.8242188 95.0498039,24.8632809 95.2060547,24.9414062 C95.3232428,25.2539078 95.3818359,25.5957013 95.3818359,25.9667969 C95.3818359,26.6113313 94.9912148,27.4121046 94.2099609,28.3691406 C93.428707,29.3261767 93.0380859,30.0878878 93.0380859,30.6542969 C93.0380859,31.1816433 93.5263623,31.435547 94.5029297,31.4160156 C94.8544939,31.4160156 95.1474598,31.3378914 95.3818359,31.1816406 C95.4208986,31.1816406 95.4941401,31.1425785 95.6015625,31.0644531 C95.7089849,30.9863277 95.8017574,30.9472656 95.8798828,30.9472656 C96.114259,30.9082029 96.2314453,31.2011687 96.2314453,31.8261719 C96.2314453,32.1777361 96.0507831,32.5585917 95.6894531,32.96875 C95.3281232,33.3789083 94.8447296,33.6425775 94.2392578,33.7597656 C93.633786,33.7207029 93.0527372,33.491213 92.4960938,33.0712891 C91.9394503,32.6513651 91.4951188,32.2412129 91.1630859,31.8408203 C90.831053,31.4404277 90.6357425,31.2402344 90.5771484,31.2402344 C90.381835,31.2402344 89.1025509,32.4218632 86.7392578,34.7851562 C86.4267563,35.0976578 85.8701212,35.4345685 85.0693359,35.7958984 C84.2685507,36.1572284 83.7314467,36.4355459 83.4580078,36.6308594 C83.3408197,36.7089848 82.9111365,37.0800748 82.1689453,37.7441406 C81.4267541,38.4082064 80.7871121,38.9013656 80.25,39.2236328 C79.7128879,39.5459 79.1806667,39.7070312 78.6533203,39.7070312 L78.5361328,39.7070312 C78.3017566,39.7070312 78.0527357,39.526369 77.7890625,39.1650391 C77.5253893,38.8037091 77.3935547,38.5058605 77.3935547,38.2714844 L77.3935547,38.2714844 Z M92.8916016,36.3964844 C92.8916016,35.1074154 93.5947195,33.4277447 95.0009766,31.3574219 C94.3955048,30.9667949 94.0927734,30.449222 94.0927734,29.8046875 C94.0537107,29.3554665 94.3466766,29.013673 94.9716797,28.7792969 C95.5966828,28.5449207 96.3095663,28.4082033 97.1103516,28.3691406 C97.6767606,27.7246062 99.5517419,25.9570457 102.735352,23.0664062 C102.774414,23.0664062 103.106442,22.8564474 103.731445,22.4365234 C104.356448,22.0165995 104.766601,21.7675785 104.961914,21.6894531 C105.528323,21.2011694 106.065427,20.9472657 106.573242,20.9277344 L106.836914,20.9277344 C108.262702,20.9277344 108.975586,21.5478454 108.975586,22.7880859 C108.975586,24.0283265 108.68262,24.9414033 108.09668,25.5273438 C107.706053,26.0937528 107.237307,26.6162085 106.69043,27.0947266 C106.143552,27.5732446 105.718752,27.915038 105.416016,28.1201172 C105.11328,28.3251963 104.522465,28.6669898 103.643555,29.1455078 C102.764644,29.6240258 102.168947,29.9609365 101.856445,30.15625 C100.62597,30.8789099 99.2587966,31.3574207 97.7548828,31.5917969 C96.6806587,32.158206 95.6064507,33.6816282 94.5322266,36.1621094 C94.7080087,36.4746109 95.0009745,36.6210938 95.4111328,36.6015625 C95.645509,36.6015625 95.9287093,36.5527349 96.2607422,36.4550781 C96.9443394,36.1816393 97.9257749,35.8447286 99.2050781,35.4443359 C100.484381,35.0439433 101.426755,34.7070326 102.032227,34.4335938 C102.149415,34.2382803 102.916009,33.789066 104.332031,33.0859375 C105.748054,32.382809 106.495117,31.9921879 106.573242,31.9140625 L109.883789,29.1894531 L110.05957,28.9550781 L112.227539,27.4023438 L113.370117,26.3769531 C113.819338,25.9277321 114.03418,25.9082011 114.014648,26.3183594 C114.014648,26.5527355 113.965821,26.7333978 113.868164,26.8603516 C113.770507,26.9873053 113.643555,27.1093744 113.487305,27.2265625 C113.331054,27.3437506 113.213868,27.4609369 113.135742,27.578125 C112.862303,28.027346 112.452151,28.461912 111.905273,28.8818359 C111.358396,29.3017599 110.948244,29.6679672 110.674805,29.9804688 C110.635742,30.0195314 110.567383,30.1562488 110.469727,30.390625 L110.352539,30.8300781 C109.825193,31.6699261 108.731454,32.6269478 107.071289,33.7011719 C105.508781,34.8535214 103.516614,35.9912053 101.094727,37.1142578 C98.6728395,38.2373103 96.6416098,38.8574213 95.0009766,38.9746094 L94.8837891,38.9746094 C94.3369113,38.9746094 93.8779315,38.7500022 93.5068359,38.3007812 C93.0966776,37.7929662 92.8916016,37.1582069 92.8916016,36.3964844 L92.8916016,36.3964844 Z M99.6884766,28.4863281 C101.133796,27.9589817 102.911122,26.9921945 105.020508,25.5859375 C105.293947,25.4687494 105.630857,25.1904319 106.03125,24.7509766 C106.431643,24.3115212 106.612305,23.9355484 106.573242,23.6230469 L106.573242,23.4472656 C106.534179,23.4472656 106.187503,23.6279279 105.533203,23.9892578 C104.878903,24.3505877 104.405275,24.5703121 104.112305,24.6484375 C104.034179,24.7265629 103.365241,25.2636669 102.105469,26.2597656 C100.845697,27.2558644 100.040041,27.9980444 99.6884766,28.4863281 L99.6884766,28.4863281 Z" id="live" fill="#FF7070"></path>
                </g>
            </g>
        </g>
    </g>
</svg>