<?xml version="1.0" encoding="UTF-8" standalone="no"?>
<svg width="404px" height="92px" viewBox="0 0 404 92" version="1.1" xmlns="http://www.w3.org/2000/svg" xmlns:xlink="http://www.w3.org/1999/xlink">
    <!-- Generator: Sketch 40.1 (33804) - http://www.bohemiancoding.com/sketch -->
    <title>Popup</title>
    <desc>Created with Sketch.</desc>
    <defs>
        <linearGradient x1="50%" y1="0%" x2="50%" y2="100%" id="linearGradient-1">
            <stop stop-color="#24272A" offset="0%"></stop>
            <stop stop-color="#1C1C1C" offset="100%"></stop>
        </linearGradient>
        <path d="M17.1439763,3.87207413e-16 C20.3969359,3.87207413e-16 22.5069638,2.12962963 22.5069638,5.41280864 L22.5069638,17.3032407 C22.5069638,20.5864198 20.3969359,22.7160494 17.1439763,22.7160494 L5.36298747,22.7160494 C2.11002786,22.7160494 0,20.5864198 0,17.3032407 L0,5.41280864 C0,2.12962963 2.11002786,3.87207415e-16 5.36298747,3.87207415e-16 L17.1439763,3.87207413e-16 Z" id="path-2"></path>
    </defs>
    <g id="Page-1" stroke="none" stroke-width="1" fill="none" fill-rule="evenodd">
        <g id="Artboard-Copy-8" transform="translate(-720.000000, -2075.000000)">
            <g id="following" transform="translate(-77.000000, 1829.000000)">
                <g id="Group-11" transform="translate(370.000000, 106.000000)">
                    <g id="Popup" transform="translate(427.000000, 140.000000)">
                        <rect id="Background" fill-opacity="0.7" fill="#FFFFFF" x="0" y="0" width="404" height="92" rx="13.5"></rect>
                        <path d="M17.8079061,75.2248106 C17.9106283,76.6810484 19.2097616,77.6720152 21.0104207,77.6720152 C22.9198446,77.6720152 24.170638,76.650836 24.170638,75.1281309 C24.170638,73.8954649 23.4334554,73.1824522 21.6327962,72.7353086 L20.7687215,72.5177793 C19.4393758,72.1854429 18.9015951,71.7443418 18.9015951,70.9829893 C18.9015951,70.0343198 19.7656698,69.3454771 21.0164632,69.3454771 C22.2249593,69.3454771 23.0648641,69.973895 23.1977987,70.904437 L24.031661,70.904437 C23.9410238,69.5750913 22.7083578,68.590167 21.0406332,68.590167 C19.2701864,68.590167 18.0556478,69.5992612 18.0556478,71.0071592 C18.0556478,72.1914854 18.7444906,72.8742857 20.3820028,73.2791319 L21.3790121,73.532916 C22.7264852,73.8652525 23.3246908,74.3969907 23.3246908,75.2187681 C23.3246908,76.185565 22.3881063,76.9167051 21.0829305,76.9167051 C19.7535848,76.9167051 18.7565755,76.2278623 18.6417684,75.2248106 L17.8079061,75.2248106 Z M26.0319198,77.4907407 L26.8234847,77.4907407 L26.8234847,68.3907652 L26.0319198,68.3907652 L26.0319198,77.4907407 Z M29.0412728,77.4907407 L29.8328377,77.4907407 L29.8328377,70.9829893 L29.0412728,70.9829893 L29.0412728,77.4907407 Z M29.434034,69.532794 C29.760328,69.532794 30.0261971,69.2669248 30.0261971,68.9406309 C30.0261971,68.6203794 29.760328,68.3545103 29.434034,68.3545103 C29.1137826,68.3545103 28.8479134,68.6203794 28.8479134,68.9406309 C28.8479134,69.2669248 29.1137826,69.532794 29.434034,69.532794 L29.434034,69.532794 Z M34.4132357,77.5995054 C35.410245,77.5995054 36.2501498,77.0617246 36.6368685,76.1916074 L36.7093783,76.1916074 L36.7093783,77.4907407 L37.4707308,77.4907407 L37.4707308,68.3907652 L36.6791659,68.3907652 L36.6791659,72.2519102 L36.6066561,72.2519102 C36.2380648,71.3999204 35.4042025,70.8742246 34.4132357,70.8742246 C32.7636385,70.8742246 31.6578646,72.2216978 31.6578646,74.2398862 C31.6578646,76.2580747 32.7515536,77.5995054 34.4132357,77.5995054 L34.4132357,77.5995054 Z M34.5824252,71.5872373 C35.8573885,71.5872373 36.6912508,72.6386289 36.6912508,74.2338438 C36.6912508,75.8411436 35.863431,76.8804502 34.5824252,76.8804502 C33.2953768,76.8804502 32.4735995,75.8532285 32.4735995,74.2338438 C32.4735995,72.6205015 33.2953768,71.5872373 34.5824252,71.5872373 L34.5824252,71.5872373 Z M42.2263607,71.5751524 C43.4046444,71.5751524 44.1841244,72.451312 44.2022518,73.7927427 L40.1477474,73.7927427 C40.2202572,72.451312 41.0420345,71.5751524 42.2263607,71.5751524 L42.2263607,71.5751524 Z M44.1236996,75.8834409 C43.8457455,76.5239439 43.1810726,76.8925352 42.2565731,76.8925352 C40.9997372,76.8925352 40.1840023,75.9499082 40.1417049,74.4815855 L40.1417049,74.4453306 L45.0300716,74.4453306 L45.0300716,74.0948667 C45.0300716,72.1068906 43.9665951,70.8742246 42.2324032,70.8742246 C40.4619564,70.8742246 39.3259701,72.1975279 39.3259701,74.2398862 C39.3259701,76.2943296 40.4498714,77.5995054 42.2384457,77.5995054 C43.6040462,77.5995054 44.607098,76.940875 44.9273495,75.8834409 L44.1236996,75.8834409 Z M50.6862289,77.4907407 L51.4777938,77.4907407 L51.4777938,71.6537046 L53.0125839,71.6537046 L53.0125839,70.9829893 L51.4777938,70.9829893 L51.4777938,70.2820615 C51.4777938,69.5146665 51.8584701,69.1460752 52.5231429,69.1460752 C52.7225448,69.1460752 52.9219466,69.1642027 53.0730087,69.2004575 L53.0730087,68.5297422 C52.8494369,68.4874448 52.6802474,68.4693174 52.4808456,68.4693174 C51.3267318,68.4693174 50.6862289,69.0312681 50.6862289,70.2639341 L50.6862289,70.9829893 L49.6046249,70.9829893 L49.6046249,71.6537046 L50.6862289,71.6537046 L50.6862289,77.4907407 Z M56.9947762,76.8804502 C55.6533456,76.8804502 54.8557382,75.8834409 54.8557382,74.2338438 C54.8557382,72.5842466 55.6533456,71.5872373 56.9947762,71.5872373 C58.3362069,71.5872373 59.1338143,72.5842466 59.1338143,74.2338438 C59.1338143,75.8834409 58.3362069,76.8804502 56.9947762,76.8804502 L56.9947762,76.8804502 Z M56.9947762,77.5995054 C58.8135629,77.5995054 59.9555917,76.312457 59.9555917,74.2338438 C59.9555917,72.1552305 58.8135629,70.8742246 56.9947762,70.8742246 C55.1759896,70.8742246 54.0400033,72.1552305 54.0400033,74.2338438 C54.0400033,76.312457 55.1759896,77.5995054 56.9947762,77.5995054 L56.9947762,77.5995054 Z M61.7443636,77.4907407 L62.5359286,77.4907407 L62.5359286,73.4301939 C62.5359286,72.4029722 63.2851962,71.6416196 64.2942904,71.6416196 C64.5299471,71.6416196 64.8562411,71.6778745 65.0012606,71.7201719 L65.0012606,70.928607 C64.8260287,70.8863096 64.6084994,70.8742246 64.3909701,70.8742246 C63.5268954,70.8742246 62.7957552,71.3455381 62.5782259,72.0525083 L62.4996737,72.0525083 L62.4996737,70.9829893 L61.7443636,70.9829893 L61.7443636,77.4907407 Z M69.8658529,77.4907407 L70.6574178,77.4907407 L70.6574178,73.4966612 C70.6574178,72.4331846 71.388558,71.5872373 72.3311849,71.5872373 C73.2315145,71.5872373 73.8297201,72.1975279 73.8297201,73.1341123 L73.8297201,77.4907407 L74.621285,77.4907407 L74.621285,73.3637266 C74.621285,72.3546323 75.2920004,71.5872373 76.2950521,71.5872373 C77.273934,71.5872373 77.7996298,72.1552305 77.7996298,73.218707 L77.7996298,77.4907407 L78.5911947,77.4907407 L78.5911947,73.0374326 C78.5911947,71.6597471 77.8358846,70.8742246 76.5307089,70.8742246 C75.5941244,70.8742246 74.8327719,71.3757505 74.5004354,72.1552305 L74.4218832,72.1552305 C74.1439291,71.3757505 73.4913412,70.8742246 72.5789266,70.8742246 C71.678597,70.8742246 70.9837118,71.3576231 70.6997152,72.1552305 L70.621163,72.1552305 L70.621163,70.9829893 L69.8658529,70.9829893 L69.8658529,77.4907407 Z M83.2803573,76.8804502 C81.9389266,76.8804502 81.1413192,75.8834409 81.1413192,74.2338438 C81.1413192,72.5842466 81.9389266,71.5872373 83.2803573,71.5872373 C84.621788,71.5872373 85.4193954,72.5842466 85.4193954,74.2338438 C85.4193954,75.8834409 84.621788,76.8804502 83.2803573,76.8804502 L83.2803573,76.8804502 Z M83.2803573,77.5995054 C85.0991439,77.5995054 86.2411727,76.312457 86.2411727,74.2338438 C86.2411727,72.1552305 85.0991439,70.8742246 83.2803573,70.8742246 C81.4615707,70.8742246 80.3255844,72.1552305 80.3255844,74.2338438 C80.3255844,76.312457 81.4615707,77.5995054 83.2803573,77.5995054 L83.2803573,77.5995054 Z M88.0299447,77.4907407 L88.8215097,77.4907407 L88.8215097,73.4301939 C88.8215097,72.4029722 89.5707772,71.6416196 90.5798715,71.6416196 C90.8155282,71.6416196 91.1418222,71.6778745 91.2868417,71.7201719 L91.2868417,70.928607 C91.1116098,70.8863096 90.8940805,70.8742246 90.6765512,70.8742246 C89.8124764,70.8742246 89.0813363,71.3455381 88.863807,72.0525083 L88.7852548,72.0525083 L88.7852548,70.9829893 L88.0299447,70.9829893 L88.0299447,77.4907407 Z M95.2992465,71.5751524 C96.4775302,71.5751524 97.2570101,72.451312 97.2751376,73.7927427 L93.2206332,73.7927427 C93.293143,72.451312 94.1149203,71.5751524 95.2992465,71.5751524 L95.2992465,71.5751524 Z M97.1965853,75.8834409 C96.9186312,76.5239439 96.2539584,76.8925352 95.3294589,76.8925352 C94.0726229,76.8925352 93.2568881,75.9499082 93.2145907,74.4815855 L93.2145907,74.4453306 L98.1029574,74.4453306 L98.1029574,74.0948667 C98.1029574,72.1068906 97.0394808,70.8742246 95.305289,70.8742246 C93.5348422,70.8742246 92.3988558,72.1975279 92.3988558,74.2398862 C92.3988558,76.2943296 93.5227572,77.5995054 95.3113314,77.5995054 C96.676932,77.5995054 97.6799838,76.940875 98.0002352,75.8834409 L97.1965853,75.8834409 Z" id="Slide-for-more" fill="#000000" opacity="0.7"></path>
                        <path d="M22.3860212,59.3209877 L22.3860212,50.4731483 L25.6209455,50.4731483 L25.6209455,49.0163612 L17.5443464,49.0163612 L17.5443464,50.4731483 L20.7864118,50.4731483 L20.7864118,59.3209877 L22.3860212,59.3209877 Z M27.3804938,59.3209877 L28.9158332,59.3209877 L28.9158332,54.7792396 C28.9158332,53.6009559 29.6156623,52.8082923 30.8724982,52.8082923 C31.9579475,52.8082923 32.5363776,53.4367103 32.5363776,54.679264 L32.5363776,59.3209877 L34.071717,59.3209877 L34.071717,54.300785 C34.071717,52.4512367 33.0505378,51.401493 31.3937995,51.401493 C30.2226569,51.401493 29.4014289,51.9227943 29.0229499,52.7940101 L28.901551,52.7940101 L28.901551,48.5093421 L27.3804938,48.5093421 L27.3804938,59.3209877 Z M36.1668976,59.3209877 L37.6950959,59.3209877 L37.6950959,51.5443153 L36.1668976,51.5443153 L36.1668976,59.3209877 Z M36.9309968,50.1803627 C37.5022858,50.1803627 37.9236115,49.7733192 37.9236115,49.2448768 C37.9236115,48.7092933 37.5022858,48.3022499 36.9309968,48.3022499 C36.3597077,48.3022499 35.938382,48.7092933 35.938382,49.2448768 C35.938382,49.7733192 36.3597077,50.1803627 36.9309968,50.1803627 L36.9309968,50.1803627 Z M39.6831599,53.7437782 C39.6831599,54.9006385 40.3687067,55.5647621 41.8469172,55.9146766 L43.2037287,56.2288856 C43.9821101,56.4145545 44.3463068,56.7144813 44.3463068,57.1786537 C44.3463068,57.7999305 43.6679011,58.2283973 42.7109919,58.2283973 C41.7826472,58.2283973 41.2113581,57.8570594 41.018548,57.2572059 L39.4832087,57.2572059 C39.6188898,58.6354408 40.825738,59.470951 42.6752863,59.470951 C44.5319758,59.470951 45.8959284,58.4926185 45.8959284,57.0286903 C45.8959284,55.8861122 45.2032404,55.2505531 43.72503,54.9077796 L42.4324885,54.6078529 C41.5898371,54.4150428 41.1970759,54.1222572 41.1970759,53.6580848 C41.1970759,53.0510902 41.8469172,52.6440467 42.7038508,52.6440467 C43.5750666,52.6440467 44.1320734,53.0082435 44.2748957,53.5795326 L45.745965,53.5795326 C45.5960017,52.2084388 44.4534235,51.3943519 42.7038508,51.3943519 C40.9471369,51.3943519 39.6831599,52.3655433 39.6831599,53.7437782 L39.6831599,53.7437782 Z M49.3907673,59.3209877 L49.3907673,52.0013465 L49.5050251,52.0013465 L54.79659,59.3209877 L56.2390949,59.3209877 L56.2390949,49.0163612 L54.6823322,49.0163612 L54.6823322,56.3360023 L54.5680744,56.3360023 L49.2765095,49.0163612 L47.8340046,49.0163612 L47.8340046,59.3209877 L49.3907673,59.3209877 Z M61.7477277,52.7011756 C62.8831647,52.7011756 63.6258405,53.4938392 63.6615461,54.7149696 L59.7339338,54.7149696 C59.8196271,53.5009803 60.6122907,52.7011756 61.7477277,52.7011756 L61.7477277,52.7011756 Z M63.654405,57.2215003 C63.3687604,57.828495 62.7332014,58.1641273 61.8048566,58.1641273 C60.5765852,58.1641273 59.7839216,57.3000526 59.7339338,55.9361 L59.7339338,55.8504066 L65.2254499,55.8504066 L65.2254499,55.3148231 C65.2254499,52.8725624 63.9186262,51.3943519 61.7548688,51.3943519 C59.5625471,51.3943519 58.17003,52.9725379 58.17003,55.4576454 C58.17003,57.9427528 59.5339826,59.470951 61.76201,59.470951 C63.5401472,59.470951 64.7827009,58.6140174 65.1326154,57.2215003 L63.654405,57.2215003 Z M77.053968,51.5443153 L75.5186286,51.5443153 L74.1332526,57.4785804 L74.0118537,57.4785804 L72.4122443,51.5443153 L70.941175,51.5443153 L69.3415656,57.4785804 L69.2273078,57.4785804 L67.8347907,51.5443153 L66.278028,51.5443153 L68.420362,59.3209877 L69.998548,59.3209877 L71.5981574,53.5938148 L71.7195563,53.5938148 L73.3263068,59.3209877 L74.9187751,59.3209877 L77.053968,51.5443153 Z M82.9625031,59.3209877 C85.161966,59.3209877 86.483072,58.2141151 86.483072,56.4002723 C86.483072,55.057743 85.5547272,54.0651283 84.1622102,53.922306 L84.1622102,53.8009071 C85.1762482,53.6295204 85.9689118,52.6654701 85.9689118,51.587162 C85.9689118,50.0018348 84.8049104,49.0163612 82.8696687,49.0163612 L78.727823,49.0163612 L78.727823,59.3209877 L82.9625031,59.3209877 Z M80.3274323,50.3731727 L82.4983308,50.3731727 C83.6837556,50.3731727 84.3764436,50.9301795 84.3764436,51.8799476 C84.3764436,52.8582801 83.6409089,53.3795814 82.2269685,53.3795814 L80.3274323,53.3795814 L80.3274323,50.3731727 Z M80.3274323,57.9641761 L80.3274323,54.6435585 L82.5483186,54.6435585 C84.0550935,54.6435585 84.847757,55.2077064 84.847757,56.2860145 C84.847757,57.3786048 84.0836579,57.9641761 82.641153,57.9641761 L80.3274323,57.9641761 Z M90.80628,58.1569862 C89.9707697,58.1569862 89.3637751,57.7499427 89.3637751,57.0501136 C89.3637751,56.3645668 89.8493708,56.00037 90.9205378,55.9289588 L92.8200739,55.8075599 L92.8200739,56.4574012 C92.8200739,57.4214515 91.9631403,58.1569862 90.80628,58.1569862 L90.80628,58.1569862 Z M90.4135188,59.4495277 C91.434698,59.4495277 92.2844904,59.0067787 92.7486628,58.2283973 L92.8700617,58.2283973 L92.8700617,59.3209877 L94.3482722,59.3209877 L94.3482722,54.0079994 C94.3482722,52.3655433 93.2485407,51.3943519 91.2990168,51.3943519 C89.5351618,51.3943519 88.2783259,52.2512855 88.1212214,53.5866737 L89.606573,53.5866737 C89.7779597,53.036808 90.3706721,52.722599 91.2276057,52.722599 C92.2773493,52.722599 92.8200739,53.1867713 92.8200739,54.0079994 L92.8200739,54.679264 L90.7134455,54.8006629 C88.8638972,54.9149208 87.8212946,55.7218666 87.8212946,57.1215248 C87.8212946,58.5426063 88.913885,59.4495277 90.4135188,59.4495277 L90.4135188,59.4495277 Z M96.4434528,59.3209877 L97.9787922,59.3209877 L97.9787922,54.7720985 C97.9787922,53.5581092 98.7000446,52.8011512 99.8354816,52.8011512 C100.970919,52.8011512 101.513643,53.4224281 101.513643,54.6721229 L101.513643,59.3209877 L103.048983,59.3209877 L103.048983,54.2865028 C103.048983,52.4369545 102.092073,51.3943519 100.356783,51.3943519 C99.1856403,51.3943519 98.4144001,51.9156532 98.0359211,52.7797279 L97.9216633,52.7797279 L97.9216633,51.5443153 L96.4434528,51.5443153 L96.4434528,59.3209877 Z M107.957762,59.4495277 C109.028929,59.4495277 109.93585,58.9425087 110.400023,58.0927162 L110.521422,58.0927162 L110.521422,59.3209877 L111.992491,59.3209877 L111.992491,48.5093421 L110.457152,48.5093421 L110.457152,52.7797279 L110.342894,52.7797279 C109.921568,51.9227943 109.021788,51.4157753 107.957762,51.4157753 C105.993956,51.4157753 104.729979,52.9725379 104.729979,55.4290809 C104.729979,57.892765 105.979674,59.4495277 107.957762,59.4495277 L107.957762,59.4495277 Z M108.39337,52.7940101 C109.67877,52.7940101 110.485716,53.8151893 110.485716,55.436222 C110.485716,57.0643959 109.685911,58.0712928 108.39337,58.0712928 C107.093687,58.0712928 106.315306,57.0786781 106.315306,55.4290809 C106.315306,53.793766 107.100828,52.7940101 108.39337,52.7940101 L108.39337,52.7940101 Z M118.139517,59.3209877 L119.667716,59.3209877 L119.667716,51.5443153 L118.139517,51.5443153 L118.139517,59.3209877 Z M118.903616,50.1803627 C119.474905,50.1803627 119.896231,49.7733192 119.896231,49.2448768 C119.896231,48.7092933 119.474905,48.3022499 118.903616,48.3022499 C118.332327,48.3022499 117.911002,48.7092933 117.911002,49.2448768 C117.911002,49.7733192 118.332327,50.1803627 118.903616,50.1803627 L118.903616,50.1803627 Z M121.65578,53.7437782 C121.65578,54.9006385 122.341326,55.5647621 123.819537,55.9146766 L125.176348,56.2288856 C125.95473,56.4145545 126.318926,56.7144813 126.318926,57.1786537 C126.318926,57.7999305 125.640521,58.2283973 124.683612,58.2283973 C123.755267,58.2283973 123.183978,57.8570594 122.991168,57.2572059 L121.455828,57.2572059 C121.591509,58.6354408 122.798358,59.470951 124.647906,59.470951 C126.504595,59.470951 127.868548,58.4926185 127.868548,57.0286903 C127.868548,55.8861122 127.17586,55.2505531 125.69765,54.9077796 L124.405108,54.6078529 C123.562457,54.4150428 123.169696,54.1222572 123.169696,53.6580848 C123.169696,53.0510902 123.819537,52.6440467 124.67647,52.6440467 C125.547686,52.6440467 126.104693,53.0082435 126.247515,53.5795326 L127.718585,53.5795326 C127.568621,52.2084388 126.426043,51.3943519 124.67647,51.3943519 C122.919757,51.3943519 121.65578,52.3655433 121.65578,53.7437782 L121.65578,53.7437782 Z M137.571849,51.4157753 C136.514964,51.4157753 135.600902,51.9442176 135.129588,52.8297157 L135.01533,52.8297157 L135.01533,51.5443153 L133.53712,51.5443153 L133.53712,61.9060707 L135.072459,61.9060707 L135.072459,58.142704 L135.193858,58.142704 C135.600902,58.963932 136.479259,59.4495277 137.586131,59.4495277 C139.549937,59.4495277 140.799632,57.8999061 140.799632,55.4290809 C140.799632,52.9582557 139.549937,51.4157753 137.571849,51.4157753 L137.571849,51.4157753 Z M137.136241,58.0712928 C135.850841,58.0712928 135.043895,57.0572547 135.043895,55.436222 C135.043895,53.8080482 135.850841,52.7940101 137.143382,52.7940101 C138.443065,52.7940101 139.221446,53.7866249 139.221446,55.4290809 C139.221446,57.0786781 138.443065,58.0712928 137.136241,58.0712928 L137.136241,58.0712928 Z M142.62345,59.3209877 L144.15879,59.3209877 L144.15879,48.5093421 L142.62345,48.5093421 L142.62345,59.3209877 Z M148.910465,58.1569862 C148.074954,58.1569862 147.46796,57.7499427 147.46796,57.0501136 C147.46796,56.3645668 147.953555,56.00037 149.024722,55.9289588 L150.924259,55.8075599 L150.924259,56.4574012 C150.924259,57.4214515 150.067325,58.1569862 148.910465,58.1569862 L148.910465,58.1569862 Z M148.517703,59.4495277 C149.538883,59.4495277 150.388675,59.0067787 150.852847,58.2283973 L150.974246,58.2283973 L150.974246,59.3209877 L152.452457,59.3209877 L152.452457,54.0079994 C152.452457,52.3655433 151.352725,51.3943519 149.403201,51.3943519 C147.639346,51.3943519 146.38251,52.2512855 146.225406,53.5866737 L147.710758,53.5866737 C147.882144,53.036808 148.474857,52.722599 149.33179,52.722599 C150.381534,52.722599 150.924259,53.1867713 150.924259,54.0079994 L150.924259,54.679264 L148.81763,54.8006629 C146.968082,54.9149208 145.925479,55.7218666 145.925479,57.1215248 C145.925479,58.5426063 147.01807,59.4495277 148.517703,59.4495277 L148.517703,59.4495277 Z M155.061798,62.1417274 C156.647125,62.1417274 157.382659,61.5347328 158.046783,59.6423378 L160.946075,51.5443153 L159.317901,51.5443153 L157.375518,57.7213783 L157.254119,57.7213783 L155.304595,51.5443153 L153.633575,51.5443153 L156.447174,59.3495521 L156.332916,59.7280311 C156.068695,60.5135536 155.65451,60.8134803 154.926116,60.8134803 C154.783294,60.8134803 154.547637,60.8063392 154.426239,60.7849159 L154.426239,62.1060218 C154.569061,62.1274452 154.933258,62.1417274 155.061798,62.1417274 L155.061798,62.1417274 Z M162.455684,59.3209877 L163.983883,59.3209877 L163.983883,51.5443153 L162.455684,51.5443153 L162.455684,59.3209877 Z M163.219783,50.1803627 C163.791072,50.1803627 164.212398,49.7733192 164.212398,49.2448768 C164.212398,48.7092933 163.791072,48.3022499 163.219783,48.3022499 C162.648494,48.3022499 162.227169,48.7092933 162.227169,49.2448768 C162.227169,49.7733192 162.648494,50.1803627 163.219783,50.1803627 L163.219783,50.1803627 Z M166.150474,59.3209877 L167.685814,59.3209877 L167.685814,54.7720985 C167.685814,53.5581092 168.407066,52.8011512 169.542503,52.8011512 C170.67794,52.8011512 171.220665,53.4224281 171.220665,54.6721229 L171.220665,59.3209877 L172.756004,59.3209877 L172.756004,54.2865028 C172.756004,52.4369545 171.799095,51.3943519 170.063804,51.3943519 C168.892662,51.3943519 168.121422,51.9156532 167.742943,52.7797279 L167.628685,52.7797279 L167.628685,51.5443153 L166.150474,51.5443153 L166.150474,59.3209877 Z M180.185596,55.3362464 C180.185596,56.8930091 179.392933,57.8784828 178.078968,57.8784828 C176.757862,57.8784828 176.015186,56.885868 176.015186,55.3362464 C176.015186,53.7866249 176.757862,52.7940101 178.078968,52.7940101 C179.385792,52.7940101 180.185596,53.7866249 180.185596,55.3362464 L180.185596,55.3362464 Z M178.100391,62.2916908 C180.299854,62.2916908 181.692371,61.1633949 181.692371,59.3852577 L181.692371,51.5443153 L180.221302,51.5443153 L180.221302,52.786869 L180.099903,52.786869 C179.664295,51.9442176 178.728809,51.4157753 177.657642,51.4157753 C175.672413,51.4157753 174.429859,52.9725379 174.429859,55.3433876 C174.429859,57.6713905 175.658131,59.2067298 177.64336,59.2067298 C178.714527,59.2067298 179.571461,58.7425575 180.042774,57.8999061 L180.157032,57.8999061 L180.157032,59.3923988 C180.157032,60.4207191 179.400074,61.0277137 178.121815,61.0277137 C177.086353,61.0277137 176.436512,60.663517 176.307972,60.099369 L174.736927,60.099369 C174.901173,61.420475 176.158009,62.2916908 178.100391,62.2916908 L178.100391,62.2916908 Z M194.344952,57.8499183 L189.517559,57.8499183 L189.517559,49.0163612 L187.91795,49.0163612 L187.91795,59.3209877 L194.344952,59.3209877 L194.344952,57.8499183 Z M197.875496,59.3209877 L197.875496,49.0163612 L196.275887,49.0163612 L196.275887,59.3209877 L197.875496,59.3209877 Z M205.012303,59.3209877 L208.675694,49.0163612 L206.976109,49.0163612 L204.212498,57.3214759 L204.091099,57.3214759 L201.313206,49.0163612 L199.570775,49.0163612 L203.255589,59.3209877 L205.012303,59.3209877 Z M216.919373,57.8642005 L211.977723,57.8642005 L211.977723,54.7720985 L216.655152,54.7720985 L216.655152,53.3867225 L211.977723,53.3867225 L211.977723,50.4731483 L216.919373,50.4731483 L216.919373,49.0163612 L210.378114,49.0163612 L210.378114,59.3209877 L216.919373,59.3209877 L216.919373,57.8642005 Z M222.866448,59.3209877 L224.401788,59.3209877 L224.401788,54.7720985 C224.401788,53.5581092 225.12304,52.8011512 226.258477,52.8011512 C227.393914,52.8011512 227.936639,53.4224281 227.936639,54.6721229 L227.936639,59.3209877 L229.471978,59.3209877 L229.471978,54.2865028 C229.471978,52.4369545 228.515069,51.3943519 226.779779,51.3943519 C225.608636,51.3943519 224.837396,51.9156532 224.458917,52.7797279 L224.344659,52.7797279 L224.344659,51.5443153 L222.866448,51.5443153 L222.866448,59.3209877 Z M234.823507,58.1069984 C233.488118,58.1069984 232.738302,57.1286659 232.738302,55.4290809 C232.738302,53.7437782 233.488118,52.7583045 234.823507,52.7583045 C236.151754,52.7583045 236.908712,53.7437782 236.908712,55.4290809 C236.908712,57.1215248 236.151754,58.1069984 234.823507,58.1069984 L234.823507,58.1069984 Z M234.823507,59.470951 C237.094381,59.470951 238.486898,57.9498939 238.486898,55.4290809 C238.486898,52.9225502 237.08724,51.3943519 234.823507,51.3943519 C232.552633,51.3943519 231.152974,52.9225502 231.152974,55.4290809 C231.152974,57.9498939 232.545491,59.470951 234.823507,59.470951 L234.823507,59.470951 Z M250.065477,51.5443153 L248.530137,51.5443153 L247.144761,57.4785804 L247.023363,57.4785804 L245.423753,51.5443153 L243.952684,51.5443153 L242.353074,57.4785804 L242.238817,57.4785804 L240.8463,51.5443153 L239.289537,51.5443153 L241.431871,59.3209877 L243.010057,59.3209877 L244.609666,53.5938148 L244.731065,53.5938148 L246.337816,59.3209877 L247.930284,59.3209877 L250.065477,51.5443153 Z M251.967847,49.0092201 L252.117811,55.9075355 L253.560316,55.9075355 L253.703138,49.0092201 L251.967847,49.0092201 Z M251.739332,58.399784 C251.739332,59.0496253 252.182081,59.4852333 252.846204,59.4852333 C253.503187,59.4852333 253.938795,59.0496253 253.938795,58.399784 C253.938795,57.7356605 253.503187,57.3000526 252.846204,57.3000526 C252.182081,57.3000526 251.739332,57.7356605 251.739332,58.399784 L251.739332,58.399784 Z M259.635931,56.6430702 C259.635931,58.4140663 260.91419,59.5709266 262.778021,59.5709266 C264.76325,59.5709266 265.962957,58.3783607 265.962957,56.3074378 L265.962957,49.0163612 L264.363348,49.0163612 L264.363348,56.3002967 C264.363348,57.450016 263.784918,58.0641517 262.763739,58.0641517 C261.849676,58.0641517 261.228399,57.4928627 261.206976,56.6430702 L259.635931,56.6430702 Z M274.827913,51.5443153 L273.292574,51.5443153 L273.292574,56.0932045 C273.292574,57.3143348 272.614168,58.0498695 271.371615,58.0498695 C270.243319,58.0498695 269.7363,57.450016 269.7363,56.19318 L269.7363,51.5443153 L268.20096,51.5443153 L268.20096,56.5930824 C268.20096,58.4212074 269.157869,59.470951 270.878878,59.470951 C272.057161,59.470951 272.849825,58.9710731 273.228304,58.0855751 L273.349703,58.0855751 L273.349703,59.3209877 L274.827913,59.3209877 L274.827913,51.5443153 Z M276.965941,59.3209877 L278.50128,59.3209877 L278.50128,54.5650062 C278.50128,53.5652503 279.20825,52.8011512 280.143736,52.8011512 C281.057799,52.8011512 281.64337,53.3367347 281.64337,54.2150917 L281.64337,59.3209877 L283.150145,59.3209877 L283.150145,54.4293251 C283.150145,53.5152626 283.799986,52.8011512 284.792601,52.8011512 C285.799498,52.8011512 286.299376,53.3153114 286.299376,54.365055 L286.299376,59.3209877 L287.834715,59.3209877 L287.834715,53.9651527 C287.834715,52.34412 286.920653,51.3943519 285.349608,51.3943519 C284.2713,51.3943519 283.37866,51.9442176 282.985899,52.7940101 L282.8645,52.7940101 C282.521727,51.9442176 281.786192,51.3943519 280.722166,51.3943519 C279.686705,51.3943519 278.901182,51.9156532 278.558409,52.7940101 L278.444151,52.7940101 L278.444151,51.5443153 L276.965941,51.5443153 L276.965941,59.3209877 Z M293.93606,51.4157753 C292.879176,51.4157753 291.965113,51.9442176 291.4938,52.8297157 L291.379542,52.8297157 L291.379542,51.5443153 L289.901331,51.5443153 L289.901331,61.9060707 L291.436671,61.9060707 L291.436671,58.142704 L291.55807,58.142704 C291.965113,58.963932 292.84347,59.4495277 293.950343,59.4495277 C295.914149,59.4495277 297.163844,57.8999061 297.163844,55.4290809 C297.163844,52.9582557 295.914149,51.4157753 293.93606,51.4157753 L293.93606,51.4157753 Z M293.500452,58.0712928 C292.215052,58.0712928 291.408106,57.0572547 291.408106,55.436222 C291.408106,53.8080482 292.215052,52.7940101 293.507594,52.7940101 C294.807276,52.7940101 295.585657,53.7866249 295.585657,55.4290809 C295.585657,57.0786781 294.807276,58.0712928 293.500452,58.0712928 L293.500452,58.0712928 Z M302.853839,59.3209877 L304.382037,59.3209877 L304.382037,51.5443153 L302.853839,51.5443153 L302.853839,59.3209877 Z M303.617938,50.1803627 C304.189227,50.1803627 304.610553,49.7733192 304.610553,49.2448768 C304.610553,48.7092933 304.189227,48.3022499 303.617938,48.3022499 C303.046649,48.3022499 302.625323,48.7092933 302.625323,49.2448768 C302.625323,49.7733192 303.046649,50.1803627 303.617938,50.1803627 L303.617938,50.1803627 Z M306.548629,59.3209877 L308.083968,59.3209877 L308.083968,54.7720985 C308.083968,53.5581092 308.80522,52.8011512 309.940657,52.8011512 C311.076095,52.8011512 311.618819,53.4224281 311.618819,54.6721229 L311.618819,59.3209877 L313.154158,59.3209877 L313.154158,54.2865028 C313.154158,52.4369545 312.197249,51.3943519 310.461959,51.3943519 C309.290816,51.3943519 308.519576,51.9156532 308.141097,52.7797279 L308.026839,52.7797279 L308.026839,51.5443153 L306.548629,51.5443153 L306.548629,59.3209877 Z M315.627818,49.0092201 L315.777782,55.9075355 L317.220286,55.9075355 L317.363109,49.0092201 L315.627818,49.0092201 Z M315.399303,58.399784 C315.399303,59.0496253 315.842052,59.4852333 316.506175,59.4852333 C317.163157,59.4852333 317.598765,59.0496253 317.598765,58.399784 C317.598765,57.7356605 317.163157,57.3000526 316.506175,57.3000526 C315.842052,57.3000526 315.399303,57.7356605 315.399303,58.399784 L315.399303,58.399784 Z" id="ThisNewBand-is-playi" fill="#111111"></path>
                        <g id="Topline">
                            <rect id="Background" fill="#FFFFFF" opacity="0.3" x="0" y="0" width="404" height="36.345679" rx="13.5"></rect>
                            <path d="M338.657091,15.872857 L337.793566,15.872857 L337.793566,23.4468316 C337.793566,24.2905816 337.470567,24.6465386 336.640001,24.6465386 L336.501573,24.6465386 L336.501573,25.3914117 L336.659776,25.3914117 C337.997911,25.3914117 338.657091,24.8113336 338.657091,23.4204644 L338.657091,15.872857 Z M338.222032,14.2908257 C338.577989,14.2908257 338.868028,14.0007867 338.868028,13.6448296 C338.868028,13.2954644 338.577989,13.0054253 338.222032,13.0054253 C337.872667,13.0054253 337.582628,13.2954644 337.582628,13.6448296 C337.582628,14.0007867 337.872667,14.2908257 338.222032,14.2908257 L338.222032,14.2908257 Z M346.554064,15.872857 L345.690538,15.872857 L345.690538,20.091607 C345.690538,21.4363336 344.886339,22.2998589 343.561388,22.2998589 C342.341905,22.2998589 341.722276,21.5945367 341.722276,20.2695855 L341.722276,15.872857 L340.858751,15.872857 L340.858751,20.4871148 C340.858751,22.1152886 341.755235,23.0908746 343.337267,23.0908746 C344.471056,23.0908746 345.29503,22.5767144 345.650987,21.6934136 L345.730089,21.6934136 L345.730089,22.9722222 L346.554064,22.9722222 L346.554064,15.872857 Z M348.617296,17.7515191 C348.617296,18.7534722 349.236925,19.2939996 350.555284,19.6104058 L351.629747,19.8674859 C352.578966,20.091607 353.020616,20.4541558 353.020616,21.0737847 C353.020616,21.8186578 352.236192,22.3525933 351.194689,22.3525933 C350.166368,22.3525933 349.487413,21.9043511 349.296251,21.1924371 L348.399767,21.1924371 C348.544786,22.3591851 349.619249,23.0908746 351.168321,23.0908746 C352.717394,23.0908746 353.910509,22.233941 353.910509,21.0078668 C353.910509,19.9795464 353.244737,19.4258355 351.873644,19.0962457 L350.898058,18.8655328 C349.948839,18.6414117 349.487413,18.30523 349.487413,17.7185601 C349.487413,17.0066461 350.24547,16.4924859 351.174913,16.4924859 C352.11754,16.4924859 352.77672,16.9275445 352.934923,17.593316 L353.785265,17.593316 C353.627062,16.4661187 352.611925,15.7542046 351.181505,15.7542046 C349.751085,15.7542046 348.617296,16.6111382 348.617296,17.7515191 L348.617296,17.7515191 Z M356.204454,14.0271539 L356.204454,15.872857 L355.044298,15.872857 L355.044298,16.6045464 L356.204454,16.6045464 L356.204454,21.2056207 C356.204454,22.4976128 356.744982,23.011773 358.102892,23.011773 C358.254503,23.011773 358.557726,22.9919976 358.709337,22.9656304 L358.709337,22.2273492 C358.564317,22.2405328 358.333605,22.2471246 358.195177,22.2471246 C357.397569,22.2471246 357.06798,21.8779839 357.06798,21.0078668 L357.06798,16.6045464 L358.709337,16.6045464 L358.709337,15.872857 L357.06798,15.872857 L357.06798,14.0271539 L356.204454,14.0271539 Z M364.180528,22.9722222 L365.044054,22.9722222 L365.044054,18.7534722 C365.044054,17.4153375 365.900987,16.5320367 367.153429,16.5320367 C368.386095,16.5320367 369.005724,17.2241753 369.005724,18.5754937 L369.005724,22.9722222 L369.869249,22.9722222 L369.869249,18.3579644 C369.869249,16.7034234 368.966173,15.7542046 367.384142,15.7542046 C366.250353,15.7542046 365.465929,16.2749566 365.090196,17.1516656 L365.004503,17.1516656 L365.004503,15.872857 L364.180528,15.872857 L364.180528,22.9722222 Z M374.905382,22.3064507 C373.442003,22.3064507 372.571886,21.2188043 372.571886,19.4192437 C372.571886,17.6196832 373.442003,16.5320367 374.905382,16.5320367 C376.368761,16.5320367 377.238878,17.6196832 377.238878,19.4192437 C377.238878,21.2188043 376.368761,22.3064507 374.905382,22.3064507 L374.905382,22.3064507 Z M374.905382,23.0908746 C376.889513,23.0908746 378.135362,21.6868218 378.135362,19.4192437 C378.135362,17.1516656 376.889513,15.7542046 374.905382,15.7542046 C372.921251,15.7542046 371.681993,17.1516656 371.681993,19.4192437 C371.681993,21.6868218 372.921251,23.0908746 374.905382,23.0908746 L374.905382,23.0908746 Z M388.767931,15.872857 L387.897814,15.872857 L386.309191,21.8977593 L386.230089,21.8977593 L384.476671,15.872857 L383.613146,15.872857 L381.859728,21.8977593 L381.780626,21.8977593 L380.205187,15.872857 L379.328478,15.872857 L381.338976,22.9722222 L382.248644,22.9722222 L383.99547,17.0791558 L384.081163,17.0791558 L385.827989,22.9722222 L386.744249,22.9722222 L388.767931,15.872857 Z" id="just-now" fill="#000000" opacity="0.5"></path>
                            <path d="M47.9570449,22.4048394 L43.1977675,22.4048394 L43.1977675,13.7102593 L42.2946913,13.7102593 L42.2946913,23.2222222 L47.9570449,23.2222222 L47.9570449,22.4048394 Z M49.73683,23.2222222 L50.6003554,23.2222222 L50.6003554,16.122857 L49.73683,16.122857 L49.73683,23.2222222 Z M50.1652968,14.5408257 C50.5212538,14.5408257 50.8112929,14.2507867 50.8112929,13.8948296 C50.8112929,13.5454644 50.5212538,13.2554253 50.1652968,13.2554253 C49.8159316,13.2554253 49.5258925,13.5454644 49.5258925,13.8948296 C49.5258925,14.2507867 49.8159316,14.5408257 50.1652968,14.5408257 L50.1652968,14.5408257 Z M52.6965468,18.0015191 C52.6965468,19.0034722 53.3161757,19.5439996 54.6345351,19.8604058 L55.708998,20.1174859 C56.6582167,20.341607 57.0998671,20.7041558 57.0998671,21.3237847 C57.0998671,22.0686578 56.3154433,22.6025933 55.2739394,22.6025933 C54.2456191,22.6025933 53.566664,22.1543511 53.3755019,21.4424371 L52.4790175,21.4424371 C52.624037,22.6091851 53.6984999,23.3408746 55.2475722,23.3408746 C56.7966445,23.3408746 57.9897597,22.483941 57.9897597,21.2578668 C57.9897597,20.2295464 57.3239882,19.6758355 55.9528945,19.3462457 L54.9773085,19.1155328 C54.0280898,18.8914117 53.566664,18.55523 53.566664,17.9685601 C53.566664,17.2566461 54.3247206,16.7424859 55.254164,16.7424859 C56.1967909,16.7424859 56.8559706,17.1775445 57.0141738,17.843316 L57.8645156,17.843316 C57.7063124,16.7161187 56.6911757,16.0042046 55.2607558,16.0042046 C53.8303359,16.0042046 52.6965468,16.8611382 52.6965468,18.0015191 L52.6965468,18.0015191 Z M59.8354628,23.2222222 L60.6989882,23.2222222 L60.6989882,19.0034722 C60.6989882,17.6653375 61.5559218,16.7820367 62.8083632,16.7820367 C64.0410292,16.7820367 64.6606581,17.4741753 64.6606581,18.8254937 L64.6606581,23.2222222 L65.5241835,23.2222222 L65.5241835,18.6079644 C65.5241835,16.9534234 64.6211074,16.0042046 63.0390761,16.0042046 C61.905287,16.0042046 61.1208632,16.5249566 60.7451308,17.4016656 L60.6594374,17.4016656 L60.6594374,16.122857 L59.8354628,16.122857 L59.8354628,23.2222222 Z" id="Lisn" fill="#000000" opacity="0.5"></path>
                            <g id="Group-5" transform="translate(9.002786, 6.814815)">
                                <mask id="mask-3" fill="white">
                                    <use xlink:href="#path-2"></use>
                                </mask>
                                <use id="App-Icon-Shape" fill="url(#linearGradient-1)" xlink:href="#path-2"></use>
                                <g id="Group-3" mask="url(#mask-3)">
                                    <g transform="translate(3.000000, 5.000000)" id="Group-4">
                                        <g>
                                            <g id="Group">
                                                <g id="Group-2">
                                                    <path d="M0.721964185,1.36963486 C1.42476821,0.544990528 2.59345473,0 3.71927212,0 C5.49156823,0 6.9282981,1.35059648 6.9282981,3.01664167 C6.9282981,4.68268686 5.49156823,6.03328334 3.71927212,6.03328334 C2.64919073,6.03328334 1.54037979,5.54091891 0.829709479,4.78403738 M0.721964185,1.36963486 L0.721964185,1.36963486 M0.721964185,1.36963486 C0.318392661,1.84317081 0.0684415584,2.40892 0.0684415584,3.01664167 C0.0684415584,3.67675791 0.363349487,4.2873524 0.829709479,4.78403738 C1.53444908,4.51009175 2.03031108,3.85749515 2.03031108,3.09602698 C2.03031108,2.29630906 1.48338205,1.616675 0.721964185,1.36963486 L0.721964185,1.36963486 L0.721964185,1.36963486 L0.721964185,1.36963486 L0.721964185,1.36963486 Z" id="Combined-Shape" stroke="#FFB53A" stroke-width="0.75"></path>
                                                    <path id="Line" stroke="#FFB53B" stroke-width="0.75" stroke-linecap="round"></path>
                                                    <polygon id="Rectangle" fill="#FFB53B" points="4.29084416 6.11279479 4.90564918 5.82488231 5.81090909 5.38975564 5.81090909 13.3282864 4.29084416 13.3282864"></polygon>
                                                    <path d="M0.312411221,19.9688912 C4.91150093,18.7759238 5.00809184,15.2863282 5.00809184,13.0122146" id="Oval" stroke="#FFB53B" stroke-width="0.75"></path>
                                                </g>
                                            </g>
                                            <g id="Group" transform="translate(13.522727, 10.000000) scale(-1, 1) translate(-13.522727, -10.000000) translate(10.045455, 0.000000)">
                                                <g id="Group-2">
                                                    <path d="M0.721964185,1.36963486 C1.42476821,0.544990528 2.59345473,0 3.71927212,0 C5.49156823,0 6.9282981,1.35059648 6.9282981,3.01664167 C6.9282981,4.68268686 5.49156823,6.03328334 3.71927212,6.03328334 C2.64919073,6.03328334 1.54037979,5.54091891 0.829709479,4.78403738 M0.721964185,1.36963486 L0.721964185,1.36963486 M0.721964185,1.36963486 C0.318392661,1.84317081 0.0684415584,2.40892 0.0684415584,3.01664167 C0.0684415584,3.67675791 0.363349487,4.2873524 0.829709479,4.78403738 C1.53444908,4.51009175 2.03031108,3.85749515 2.03031108,3.09602698 C2.03031108,2.29630906 1.48338205,1.616675 0.721964185,1.36963486 L0.721964185,1.36963486 L0.721964185,1.36963486 L0.721964185,1.36963486 L0.721964185,1.36963486 Z" id="Combined-Shape" stroke="#FFB53A" stroke-width="0.75"></path>
                                                    <path id="Line" stroke="#FFB53B" stroke-width="0.75" stroke-linecap="round"></path>
                                                    <polygon id="Rectangle" fill="#FFB53B" points="4.29084416 6.11279479 4.90564918 5.82488231 5.81090909 5.38975564 5.81090909 13.3282864 4.29084416 13.3282864"></polygon>
                                                    <path d="M0.312411221,19.9688912 C4.91150093,18.7759238 5.00809184,15.2863282 5.00809184,13.0122146" id="Oval" stroke="#FFB53B" stroke-width="0.75"></path>
                                                </g>
                                            </g>
                                        </g>
                                    </g>
                                </g>
                            </g>
                        </g>
                    </g>
                </g>
            </g>
        </g>
    </g>
</svg>