<?xml version="1.0" encoding="UTF-8" standalone="no"?>
<svg width="295px" height="25px" viewBox="0 0 295 25" version="1.1" xmlns="http://www.w3.org/2000/svg" xmlns:xlink="http://www.w3.org/1999/xlink">
    <!-- Generator: Sketch 40.1 (33804) - http://www.bohemiancoding.com/sketch -->
    <title>Group 9</title>
    <desc>Created with Sketch.</desc>
    <defs></defs>
    <g id="Page-1" stroke="none" stroke-width="1" fill="none" fill-rule="evenodd">
        <g id="Artboard-Copy-8" transform="translate(-643.000000, -1166.000000)" fill="#FFFFFF">
            <g id="go_live" transform="translate(-77.000000, 757.000000)">
                <g id="mobile_web-copy-6">
                    <g id="Group-5-+-img@2x-+-fattybao.menu-Mask">
                        <g id="Group-12">
                            <g id="Group-10" transform="translate(716.000000, 97.000000)">
                                <g id="Group-9" transform="translate(4.000000, 312.000000)">
                                    <path d="M202.498001,0 C195.6241,0 190,5.62485004 190,12.4996668 C190,19.3744835 195.6241,24.9993335 202.498001,24.9993335 C209.371901,24.9993335 214.996002,19.3744835 214.996002,12.4996668 C214.996002,5.62485004 209.371901,0 202.498001,0 L202.498001,0 Z M208.184591,18.0620185 C207.934631,18.4370085 207.497201,18.5620051 207.122261,18.3120118 C204.185231,16.4995601 200.498321,16.1245701 196.12402,17.1245435 C195.68659,17.2495401 195.31165,16.9370485 195.18667,16.5620585 C195.06169,16.1245701 195.37414,15.7495801 195.74908,15.6245834 C200.498321,14.5621118 204.622661,14.9996001 207.872141,16.9995468 C208.309571,17.1870418 208.434551,17.6870285 208.184591,18.0620185 L208.184591,18.0620185 Z M209.746841,14.6246101 C209.434391,15.0620984 208.871981,15.2495934 208.434551,14.9371018 C205.060091,12.8746568 199.935911,12.2496734 195.99904,13.4996401 C195.49912,13.6246368 194.93671,13.3746434 194.81173,12.8746568 C194.68675,12.3746701 194.93671,11.8121851 195.43663,11.6871884 C199.998401,10.3122251 205.622501,10.9997067 209.496881,13.3746434 C209.871821,13.5621384 209.996801,14.1871218 209.746841,14.6246101 L209.746841,14.6246101 Z M209.871821,11.1247034 C205.872461,8.74976673 199.186031,8.49977339 195.37414,9.68724174 C194.74924,9.87473674 194.12434,9.49974673 193.93687,8.93726173 C193.7494,8.31227839 194.12434,7.68729505 194.68675,7.49980005 C199.123541,6.18733504 206.434871,6.43732838 211.059131,9.18725507 C211.621541,9.49974673 211.809011,10.2497267 211.496561,10.8122117 C211.121621,11.2497001 210.434231,11.4371951 209.871821,11.1247034 L209.871821,11.1247034 Z" id="Shape-Copy"></path>
                                    <path d="M0.452976286,15.5445469 C0.369521966,15.5445469 0.303274722,15.6100356 0.292520299,15.7034661 L0,17.9584588 L0.292520299,20.1745949 C0.303274722,20.2680254 0.369521966,20.3330775 0.452976286,20.3330775 C0.533849546,20.3330775 0.599666613,20.268462 0.61257192,20.1754681 L0.61257192,20.1754681 L0.61257192,20.1750315 C0.61257192,20.1750315 0.61257192,20.1750315 0.61257192,20.1754681 L0.95929451,17.9584588 L0.61257192,15.7030295 C0.60009679,15.6100356 0.533419369,15.5445469 0.452976286,15.5445469 L0.452976286,15.5445469 Z M2.09797279,14.312487 C2.08420713,14.2155638 2.015809,14.1487653 1.93149433,14.1487653 C1.84674948,14.1487653 1.77663064,14.2177467 1.76501586,14.312487 C1.76501586,14.3133602 1.37183417,17.9584588 1.37183417,17.9584588 L1.76501586,21.5236613 C1.77620046,21.6192747 1.8463193,21.6882561 1.93149433,21.6882561 C2.01537882,21.6882561 2.08377695,21.6210211 2.09754261,21.5245345 L2.5449266,17.9584588 L2.09797279,14.312487 L2.09797279,14.312487 Z M8.29424101,10.9494262 C8.13292467,10.9494262 7.99956982,11.0834596 7.99182664,11.2537301 L7.67865785,17.9615149 L7.99182664,22.2964274 C8,22.4658247 8.13292467,22.5994216 8.29424101,22.5994216 C8.45469699,22.5994216 8.58762166,22.4653882 8.59708555,22.2955542 L8.59708555,22.296864 L8.95112115,17.9615149 L8.59708555,11.2537301 C8.58762166,11.0834596 8.45469699,10.9494262 8.29424101,10.9494262 L8.29424101,10.9494262 Z M5.08727214,13.2808223 C4.96338119,13.2808223 4.86228962,13.3812383 4.85239555,13.5152717 L4.49965048,17.9597686 L4.85239555,22.2597538 C4.86185944,22.392914 4.96338119,22.49333 5.08727214,22.49333 C5.20987256,22.49333 5.31096413,22.392914 5.32171856,22.2597538 L5.72264344,17.9597686 L5.32171856,13.5143986 C5.31096413,13.3812383 5.20987256,13.2808223 5.08727214,13.2808223 L5.08727214,13.2808223 Z M11.5532613,22.598985 C11.7532935,22.598985 11.9159004,22.4352634 11.9240738,22.2256997 L12.2312201,17.9636979 L11.924504,9.03322807 C11.9163306,8.82366437 11.7537237,8.65994273 11.5536915,8.65994273 C11.3519385,8.65994273 11.1889014,8.82410096 11.1824488,9.03366466 C11.1824488,9.03410125 10.9101468,17.9632613 10.9101468,17.9632613 L11.1824488,22.2270094 C11.1889014,22.4348268 11.3519385,22.598985 11.5532613,22.598985 L11.5532613,22.598985 Z M18.2253052,22.6190682 C18.5006184,22.6190682 18.7277518,22.3889847 18.7329139,22.1060737 L18.7329139,22.1091299 L18.7329139,22.1060737 L18.947142,17.9663174 L18.7329139,7.6522906 C18.728182,7.36981619 18.5006184,7.13929612 18.2253052,7.13929612 C17.9495618,7.13929612 17.7219982,7.3693796 17.7176964,7.65272719 L17.5262677,17.9628247 C17.5262677,17.9693736 17.7176964,22.1086933 17.7176964,22.1086933 C17.7219982,22.3889847 17.9499919,22.6190682 18.2253052,22.6190682 L18.2253052,22.6190682 Z M14.8639028,22.6029143 C15.1035113,22.6029143 15.2966608,22.4077581 15.3031134,22.1589012 L15.3031134,22.1619574 L15.5638006,17.9645711 L15.3026832,8.96948578 C15.2962306,8.72062888 15.1030811,8.52590928 14.8634726,8.52590928 C14.6221434,8.52590928 14.4289939,8.72062888 14.4238318,8.96948578 L14.1919664,17.9650077 L14.424262,22.1615208 C14.4294241,22.4077581 14.6225735,22.6029143 14.8639028,22.6029143 L14.8639028,22.6029143 Z M6.68451901,22.5636211 C6.82690757,22.5636211 6.94219498,22.4479245 6.9529494,22.2955542 L7.33064473,17.9597686 L6.9529494,13.835293 C6.94262515,13.6829227 6.82733774,13.5680993 6.68451901,13.5680993 C6.53997957,13.5680993 6.42469215,13.6837959 6.41565844,13.8370393 L6.08313169,17.9597686 L6.41565844,22.2951176 C6.42512233,22.4479245 6.53997957,22.5636211 6.68451901,22.5636211 L6.68451901,22.5636211 Z M3.50293058,22.3261156 C3.60703339,22.3261156 3.69134807,22.2427267 3.70339302,22.1274667 L4.12754745,17.9588954 L3.7038232,13.6331513 C3.69134807,13.5174547 3.60703339,13.4340658 3.50293058,13.4340658 C3.39753724,13.4340658 3.31322256,13.5178913 3.30246814,13.6331513 C3.30246814,13.6335879 2.92907458,17.9588954 2.92907458,17.9588954 L3.30246814,22.1265935 C3.31279239,22.2422901 3.39710706,22.3261156 3.50293058,22.3261156 L3.50293058,22.3261156 Z M16.5381513,8.81973505 C16.2778943,8.81973505 16.0692585,9.02973534 16.0640964,9.29867543 L15.8524493,17.9654443 L16.0640964,22.1357619 C16.0692585,22.4012093 16.2774641,22.6112096 16.5381513,22.6112096 C16.7979782,22.6112096 17.0053234,22.4016459 17.0113459,22.1327058 L17.0113459,22.1361985 L17.2488036,17.9658808 L17.0113459,9.29780224 C17.0053234,9.02973534 16.7979782,8.81973505 16.5381513,8.81973505 L16.5381513,8.81973505 Z M9.91772867,22.6077168 C10.0975426,22.6077168 10.2459536,22.4588393 10.2545572,22.2689222 L10.5849331,17.9628247 L10.2545572,9.72085897 C10.2455235,9.53050527 10.0975426,9.38206432 9.91772867,9.38206432 C9.73619401,9.38206432 9.58821315,9.53094186 9.58046997,9.72085897 C9.58046997,9.72129556 9.28794967,17.9628247 9.28794967,17.9628247 L9.58090015,22.2706685 C9.58821315,22.4588393 9.73619401,22.6077168 9.91772867,22.6077168 L9.91772867,22.6077168 Z M13.6069258,22.2012506 L13.6069258,22.1990676 L13.8908426,17.9641345 L13.6069258,8.73285343 C13.600043,8.50364313 13.4219498,8.32376762 13.2021294,8.32376762 C12.9810184,8.32376762 12.8029252,8.50320654 12.7969027,8.73285343 L12.5448191,17.9636979 L12.7973329,22.200814 C12.8033554,22.4278413 12.9814486,22.6072802 13.2021294,22.6072802 C13.42238,22.6072802 13.5996128,22.4278413 13.6069258,22.1995042 L13.6069258,22.2012506 L13.6069258,22.2012506 Z M33.1773942,13.0306557 C32.7859332,8.53027519 29.067484,5 24.5316987,5 C23.4218422,5 22.3399473,5.22178825 21.3845244,5.59681996 C21.0132817,5.74264137 20.914341,5.89282869 20.9108996,6.18403491 L20.9108996,22.0322898 C20.9147712,22.3379036 21.1483573,22.5924361 21.4421681,22.6225609 C21.4546432,22.6238707 34.9923106,22.6308562 35.0800667,22.6308562 C37.797064,22.6308562 40,20.3950734 40,17.6371278 C40,14.8791822 37.7974942,12.6429628 35.0804969,12.6429628 C34.4064096,12.6429628 33.7632952,12.7813622 33.1773942,13.0306557 Z M19.905146,6.170064 C19.6096145,6.170064 19.3669947,6.41630135 19.3626929,6.71885894 L19.1407216,17.9676272 L19.3631231,22.0501901 C19.3669947,22.3483818 19.6096145,22.5941825 19.905146,22.5941825 C20.1998172,22.5941825 20.442437,22.3483818 20.4467387,22.0458242 L20.4467387,22.0506267 L20.688068,17.9676272 L20.4467387,6.71798576 C20.442437,6.41630135 20.1998172,6.170064 19.905146,6.170064 L19.905146,6.170064 Z" id="Shape"></path>
                                    <path d="M54.3691406,16.5507812 C54.3925781,18.1914062 55.7226562,19.1464844 57.8789062,19.1464844 C60.0585938,19.1464844 61.4472656,18.0742188 61.4472656,16.3925781 C61.4472656,15.0566406 60.6972656,14.3007812 59.0273438,13.9785156 L57.9316406,13.7734375 C57.046875,13.5917969 56.671875,13.3398438 56.671875,12.8828125 C56.671875,12.3671875 57.1699219,12.0273438 57.9199219,12.0273438 C58.6933594,12.0273438 59.2617188,12.3964844 59.3027344,13.0117188 L61.2832031,13.0117188 C61.2597656,11.4238281 60.0117188,10.3984375 57.8964844,10.3984375 C55.9394531,10.3984375 54.5332031,11.453125 54.5332031,13.09375 C54.5332031,14.3769531 55.3359375,15.2207031 56.8945312,15.5195312 L58.0019531,15.7363281 C58.9628906,15.9355469 59.3203125,16.1640625 59.3203125,16.6328125 C59.3203125,17.1425781 58.7753906,17.5175781 57.9375,17.5175781 C57.140625,17.5175781 56.4902344,17.1308594 56.4140625,16.5507812 L54.3691406,16.5507812 Z M68.7984376,10.3984375 C66.2378907,10.3984375 64.6207032,12.0800781 64.6207032,14.7753906 C64.6207032,17.4707031 66.2320313,19.1464844 68.7984376,19.1464844 C71.3589845,19.1464844 72.9703126,17.4707031 72.9703126,14.7753906 C72.9703126,12.0800781 71.3589845,10.3984375 68.7984376,10.3984375 L68.7984376,10.3984375 Z M68.7984376,12.1445312 C69.9996095,12.1445312 70.7847657,13.1640625 70.7847657,14.7753906 C70.7847657,16.3808594 69.9996095,17.4003906 68.7984376,17.4003906 C67.5914063,17.4003906 66.8121095,16.3808594 66.8121095,14.7753906 C66.8121095,13.1640625 67.5972657,12.1445312 68.7984376,12.1445312 L68.7984376,12.1445312 Z M78.5695314,10.5449219 L76.4191408,10.5449219 L76.4191408,16 C76.4191408,17.8984375 77.8605471,19.1464844 80.0636721,19.1464844 C82.2609377,19.1464844 83.7023439,17.8984375 83.7023439,16 L83.7023439,10.5449219 L81.5519533,10.5449219 L81.5519533,15.7714844 C81.5519533,16.7558594 81.0187502,17.3417969 80.0636721,17.3417969 C79.1027346,17.3417969 78.5695314,16.7558594 78.5695314,15.7714844 L78.5695314,10.5449219 Z M89.4187503,19 L89.4187503,14.0371094 L89.4656253,14.0371094 L93.0691409,19 L94.7683597,19 L94.7683597,10.5449219 L92.7292972,10.5449219 L92.7292972,15.4609375 L92.6824222,15.4609375 L89.0964847,10.5449219 L87.3796878,10.5449219 L87.3796878,19 L89.4187503,19 Z M98.4457035,10.5449219 L98.4457035,19 L101.896875,19 C104.445704,19 105.945704,17.4238281 105.945704,14.7226562 C105.945704,12.0273438 104.445704,10.5449219 101.896875,10.5449219 L98.4457035,10.5449219 Z M100.596094,12.2792969 L101.609766,12.2792969 C102.969141,12.2792969 103.760157,13.140625 103.760157,14.7285156 C103.760157,16.4160156 103.010157,17.265625 101.609766,17.265625 L100.596094,17.265625 L100.596094,12.2792969 Z M113.267579,19.1464844 C115.447266,19.1464844 117.00586,17.8222656 117.105469,15.8125 L115.03711,15.8125 C114.902344,16.8027344 114.216797,17.4238281 113.273438,17.4238281 C112.089844,17.4238281 111.351563,16.421875 111.351563,14.7636719 C111.351563,13.1230469 112.095704,12.1210938 113.267579,12.1210938 C114.210938,12.1210938 114.919922,12.7773438 115.025391,13.7734375 L117.09375,13.7734375 C117.029297,11.7753906 115.40625,10.3984375 113.267579,10.3984375 C110.748047,10.3984375 109.160157,12.0097656 109.160157,14.7695312 C109.160157,17.5351562 110.736329,19.1464844 113.267579,19.1464844 L113.267579,19.1464844 Z M126.161719,17.265625 L122.663672,17.265625 L122.663672,10.5449219 L120.513282,10.5449219 L120.513282,19 L126.161719,19 L126.161719,17.265625 Z M133.137891,10.3984375 C130.577344,10.3984375 128.960157,12.0800781 128.960157,14.7753906 C128.960157,17.4707031 130.571485,19.1464844 133.137891,19.1464844 C135.698438,19.1464844 137.309766,17.4707031 137.309766,14.7753906 C137.309766,12.0800781 135.698438,10.3984375 133.137891,10.3984375 L133.137891,10.3984375 Z M133.137891,12.1445312 C134.339063,12.1445312 135.124219,13.1640625 135.124219,14.7753906 C135.124219,16.3808594 134.339063,17.4003906 133.137891,17.4003906 C131.93086,17.4003906 131.151563,16.3808594 131.151563,14.7753906 C131.151563,13.1640625 131.936719,12.1445312 133.137891,12.1445312 L133.137891,12.1445312 Z M142.908985,10.5449219 L140.758595,10.5449219 L140.758595,16 C140.758595,17.8984375 142.200001,19.1464844 144.403126,19.1464844 C146.600391,19.1464844 148.041798,17.8984375 148.041798,16 L148.041798,10.5449219 L145.891407,10.5449219 L145.891407,15.7714844 C145.891407,16.7558594 145.358204,17.3417969 144.403126,17.3417969 C143.442188,17.3417969 142.908985,16.7558594 142.908985,15.7714844 L142.908985,10.5449219 Z M151.719141,10.5449219 L151.719141,19 L155.170313,19 C157.719141,19 159.219141,17.4238281 159.219141,14.7226562 C159.219141,12.0273438 157.719141,10.5449219 155.170313,10.5449219 L151.719141,10.5449219 Z M153.869532,12.2792969 L154.883204,12.2792969 C156.242579,12.2792969 157.033595,13.140625 157.033595,14.7285156 C157.033595,16.4160156 156.283595,17.265625 154.883204,17.265625 L153.869532,17.265625 L153.869532,12.2792969 Z" id="SOUNDCLOUD"></path>
                                    <path d="M230.369141,15.5507812 C230.392578,17.1914062 231.722656,18.1464844 233.878906,18.1464844 C236.058594,18.1464844 237.447266,17.0742188 237.447266,15.3925781 C237.447266,14.0566406 236.697266,13.3007812 235.027344,12.9785156 L233.931641,12.7734375 C233.046875,12.5917969 232.671875,12.3398438 232.671875,11.8828125 C232.671875,11.3671875 233.169922,11.0273438 233.919922,11.0273438 C234.693359,11.0273438 235.261719,11.3964844 235.302734,12.0117188 L237.283203,12.0117188 C237.259766,10.4238281 236.011719,9.3984375 233.896484,9.3984375 C231.939453,9.3984375 230.533203,10.453125 230.533203,12.09375 C230.533203,13.3769531 231.335938,14.2207031 232.894531,14.5195312 L234.001953,14.7363281 C234.962891,14.9355469 235.320312,15.1640625 235.320312,15.6328125 C235.320312,16.1425781 234.775391,16.5175781 233.9375,16.5175781 C233.140625,16.5175781 232.490234,16.1308594 232.414062,15.5507812 L230.369141,15.5507812 Z M240.855078,9.54492188 L240.855078,18 L243.005469,18 L243.005469,15.5214844 L244.429297,15.5214844 C246.310156,15.5214844 247.605078,14.34375 247.605078,12.5390625 C247.605078,10.7226562 246.374609,9.54492188 244.564063,9.54492188 L240.855078,9.54492188 Z M243.005469,11.1914062 L243.989844,11.1914062 C244.892188,11.1914062 245.43125,11.6660156 245.43125,12.5449219 C245.43125,13.4296875 244.892188,13.9042969 243.978125,13.9042969 L243.005469,13.9042969 L243.005469,11.1914062 Z M254.903516,9.3984375 C252.342969,9.3984375 250.725781,11.0800781 250.725781,13.7753906 C250.725781,16.4707031 252.33711,18.1464844 254.903516,18.1464844 C257.464063,18.1464844 259.075391,16.4707031 259.075391,13.7753906 C259.075391,11.0800781 257.464063,9.3984375 254.903516,9.3984375 L254.903516,9.3984375 Z M254.903516,11.1445312 C256.104688,11.1445312 256.889844,12.1640625 256.889844,13.7753906 C256.889844,15.3808594 256.104688,16.4003906 254.903516,16.4003906 C253.696485,16.4003906 252.917188,15.3808594 252.917188,13.7753906 C252.917188,12.1640625 253.702344,11.1445312 254.903516,11.1445312 L254.903516,11.1445312 Z M266.209766,18 L266.209766,11.2792969 L268.553516,11.2792969 L268.553516,9.54492188 L261.715625,9.54492188 L261.715625,11.2792969 L264.059375,11.2792969 L264.059375,18 L266.209766,18 Z M274.01211,18 L274.01211,9.54492188 L271.861719,9.54492188 L271.861719,18 L274.01211,18 Z M279.839844,18 L279.839844,14.8476562 L283.115235,14.8476562 L283.115235,13.2011719 L279.839844,13.2011719 L279.839844,11.2792969 L283.44336,11.2792969 L283.44336,9.54492188 L277.689454,9.54492188 L277.689454,18 L279.839844,18 Z M291.386329,18 L291.386329,15.09375 L294.298438,9.54492188 L292.03086,9.54492188 L290.355079,13.0605469 L290.314063,13.0605469 L288.632422,9.54492188 L286.323829,9.54492188 L289.235938,15.09375 L289.235938,18 L291.386329,18 Z" id="SPOTIFY"></path>
                                </g>
                            </g>
                        </g>
                    </g>
                </g>
            </g>
        </g>
    </g>
</svg>