<?xml version="1.0" encoding="UTF-8" standalone="no"?>
<svg width="387px" height="118px" viewBox="0 0 387 118" version="1.1" xmlns="http://www.w3.org/2000/svg" xmlns:xlink="http://www.w3.org/1999/xlink" xmlns:sketch="http://www.bohemiancoding.com/sketch/ns">
    <!-- Generator: Sketch 3.3.3 (12081) - http://www.bohemiancoding.com/sketch -->
    <title>play_store</title>
    <desc>Created with Sketch.</desc>
    <defs></defs>
    <g id="Page-1" stroke="none" stroke-width="1" fill="none" fill-rule="evenodd" sketch:type="MSPage">
        <g id="Artboard-1-Copy" sketch:type="MSArtboardGroup" transform="translate(-182.000000, -1162.000000)">
            <g id="play_store" sketch:type="MSLayerGroup" transform="translate(182.000000, 1162.000000)">
                <g id="Group" transform="translate(0.074074, 0.400000)">
                    <path d="M14.4123333,116.6 C6.97755556,116.6 0.925925926,110.4288 0.925925926,102.8743 L0.925925926,14.3054 C0.925925926,6.748 6.97755556,0.6 14.4123333,0.6 L372.228481,0.6 C379.660407,0.6 385.925926,6.748 385.925926,14.3054 L385.925926,102.8743 C385.925926,110.4288 379.660407,116.6 372.228481,116.6 L14.4123333,116.6 Z" id="Shape" stroke="#FFFFFF" sketch:type="MSShapeGroup"></path>
                    <text id="Coming-soon-to-" sketch:type="MSTextLayer" font-family="Helvetica" font-size="26" font-weight="260" fill="#FFFFFF">
                        <tspan x="122.703704" y="38.181">Coming soon to </tspan>
                    </text>
                    <g id="Group-Copy-3" transform="translate(36.043573, 26.548276)" fill="#FFFFFF" sketch:type="MSShapeGroup">
                        <path d="M42.8097353,41.1181897 L42.812,41.1181897 L33.0420588,31.3767586 L33.0431913,31.3756295 L33.0443235,31.3767586 L37.90325,26.5297586 L42.7644412,21.6827586 L42.7621765,21.6827586 L4.88270588,0.910224138 C3.81227293,0.325663476 2.8187289,0.189919938 2.01785294,0.433655172 L2.01558824,0.433655172 C0.865117647,0.792775862 0.117764706,1.95822414 0.117764706,3.71768966 L0.124558824,59.1035862 C0.124558824,60.8427241 0.849264706,61.9878448 1.96576471,62.3695517 L33.0397943,31.3790171 L33.0420587,31.3812758 L1.96576471,62.3718103 C2.77426471,62.6451034 3.78658824,62.5141034 4.88270588,61.9178276 L42.8097353,41.1181897 Z M42.812,41.1181897 L55.7412059,34.0238621 C58.3637353,32.5783448 58.3637353,30.2316379 55.7412059,28.7974138 L42.7644412,21.6827586 L33.0443235,31.3767586 L42.812,41.1181897 Z" id="Shape"></path>
                    </g>
                    <g id="Group-Copy-2" transform="translate(119.514161, 51.065517)" fill="#FFFFFF" sketch:type="MSShapeGroup">
                        <g id="Group">
                            <path d="M152.207171,35.3426025 L149.669317,37.725811 C149.086432,38.0434389 148.503546,38.4209967 147.920661,38.6826901 C146.16199,39.4797565 144.373273,39.6795225 142.784861,39.6795225 C141.088284,39.6795225 138.438259,39.5696512 135.732149,37.6179373 C131.968433,34.9770307 130.327941,30.4383469 130.327941,26.4789846 C130.327941,18.2845829 137.018102,14.2692861 142.470383,14.2692861 C144.377279,14.2692861 146.334252,14.7467268 147.92667,15.7495522 C150.574692,17.4935095 151.259732,19.764849 151.64031,20.9794264 L139.183391,25.9995462 L135.101191,26.3151765 C136.423199,33.0293121 140.982123,36.9347376 146.015768,36.9347376 C148.531589,36.9347376 150.398424,36.1196922 152.111025,35.274682 C152.109022,35.2766797 152.453546,35.0988879 152.207171,35.3426025 L152.207171,35.3426025 Z M144.691757,21.9822517 C145.703293,21.6146823 146.230093,21.2970543 146.230093,20.5619154 C146.230093,18.4503887 143.836458,16.0172387 140.98012,16.0172387 C138.862904,16.0172387 134.888868,17.6593153 134.888868,23.3706255 C134.888868,24.2575866 134.99503,25.2084728 135.049112,26.159359 L144.691757,21.9822517 L144.691757,21.9822517 Z" id="Shape"></path>
                            <path d="M126.163617,34.9310845 C126.163617,36.9846791 126.532176,37.3043047 128.27282,37.4681128 C129.180198,37.5739888 130.085573,37.619935 130.984939,37.7298063 L129.023961,38.8904468 L119.689784,38.8904468 C120.913643,37.3083 121.121959,37.1504849 121.121959,36.097718 L121.121959,34.9131055 L121.101929,3.49790283 L116.977665,3.49790283 L120.943689,1.59013744 L128.519194,1.59013744 C126.878703,2.53902599 126.385954,3.11435209 126.173632,4.96218768 L126.163617,34.9310845 L126.163617,34.9310845 Z" id="Shape"></path>
                            <path d="M111.685628,16.8622489 C112.899471,17.8610789 115.439329,19.976601 115.439329,23.9899001 C115.439329,27.9013186 113.22797,29.7471565 110.996581,31.4951091 C110.311541,32.1823042 109.512327,32.9294291 109.512327,34.0840766 C109.512327,35.2507101 110.311541,35.8819707 110.89042,36.3594115 L112.807331,37.8296893 C115.128857,39.7873962 117.254085,41.5872879 117.254085,45.2330176 C117.254085,50.2031959 112.432762,55.2133275 103.316917,55.2133275 C95.6372533,55.2133275 91.9256161,51.5715931 91.9256161,47.6621723 C91.9256161,45.7564046 92.8750581,43.0615611 96.0078161,41.2137255 C99.2948084,39.2120701 103.743565,38.942386 106.129188,38.7885661 C105.384057,37.8296893 104.534767,36.8248663 104.534767,35.1887826 C104.534767,34.2918333 104.807181,33.7564603 105.065573,33.1271974 C104.486694,33.1831319 103.903809,33.2430617 103.370999,33.2430617 C97.7504629,33.2430617 94.5696318,29.0559661 94.5696318,24.942784 C94.5696318,22.509634 95.6853263,19.8167882 97.9647884,17.8610789 C100.985376,15.3799851 104.588849,14.9504882 107.445187,14.9504882 L118.36377,14.9504882 L114.974623,16.8622489 L111.685628,16.8622489 L111.685628,16.8622489 Z M107.929923,40.3227691 C107.495263,40.2688323 107.232865,40.2688323 106.712074,40.2688323 C106.233347,40.2688323 103.370999,40.3747083 101.153632,41.1158401 C99.9838549,41.5453371 96.5927045,42.8058606 96.5927045,46.5594639 C96.5927045,50.3050766 100.252263,53.0099084 105.91286,53.0099084 C111.000587,53.0099084 113.702691,50.5767584 113.702691,47.3045911 C113.698685,44.6037547 111.952032,43.179423 107.929923,40.3227691 L107.929923,40.3227691 Z M109.452235,30.2805318 C110.6801,29.0599615 110.784259,27.3779317 110.784259,26.4190548 C110.784259,22.621503 108.512809,16.7004384 104.108119,16.7004384 C102.734032,16.7004384 101.245772,17.3876335 100.398485,18.4503887 C99.5071309,19.553097 99.2387232,20.981424 99.2387232,22.3518188 C99.2387232,25.8896749 101.305863,31.7607979 105.856775,31.7607979 C107.186795,31.7607979 108.614964,31.1155537 109.452235,30.2805318 L109.452235,30.2805318 Z" id="Shape"></path>
                            <path d="M78.8357353,39.5756442 C70.4129428,39.5756442 65.9081009,33.035305 65.9081009,27.1142405 C65.9081009,20.1943459 71.5727042,14.2712837 79.62894,14.2712837 C87.4167681,14.2712837 92.2961789,20.3521611 92.2961789,26.7386804 C92.2961789,32.9733776 87.4748563,39.5756442 78.8357353,39.5756442 L78.8357353,39.5756442 Z M85.4617989,35.2986539 C86.7437459,33.6086335 87.0522144,31.4991044 87.0522144,29.4395169 C87.0522144,24.7869665 84.8288376,15.9113627 78.2568561,15.9113627 C76.5102033,15.9113627 74.7515322,16.5925648 73.4836065,17.7052615 C71.4104578,19.553097 71.0439011,21.8743781 71.0439011,24.1557059 C71.0439011,29.3755917 73.6318316,37.9875044 80.055588,37.9875044 C82.1267336,37.9875044 84.2399432,36.9886744 85.4617989,35.2986539 L85.4617989,35.2986539 Z" id="Shape"></path>
                            <path d="M50.636907,39.5756442 C42.2121115,39.5756442 37.7152818,33.035305 37.7152818,27.1142405 C37.7152818,20.1943459 43.3838912,14.2712837 51.4361209,14.2712837 C59.221946,14.2712837 64.0933446,20.3521611 64.0933446,26.7386804 C64.0933446,32.9733776 59.2800342,39.5756442 50.636907,39.5756442 L50.636907,39.5756442 Z M57.2649737,35.2986539 C58.5349025,33.6086335 58.8533862,31.4991044 58.8533862,29.4395169 C58.8533862,24.7869665 56.6240002,15.9113627 50.0580279,15.9113627 C48.3053659,15.9113627 46.5627192,16.5925648 45.2927904,17.7052615 C43.2176387,19.553097 42.853085,21.8743781 42.853085,24.1557059 C42.853085,29.3755917 45.4490277,37.9875044 51.8607658,37.9875044 C53.9319115,37.9875044 56.043118,36.9886744 57.2649737,35.2986539 L57.2649737,35.2986539 Z" id="Shape"></path>
                            <path d="M34.3481678,37.7417922 L27.2433771,39.3638922 C24.3670085,39.8193587 21.783084,40.2168931 19.0469284,40.2168931 C5.34611966,40.2168931 0.124188617,30.1586745 0.124188617,22.2858961 C0.124188617,12.6731557 7.5214235,3.75959631 20.1886624,3.75959631 C22.8667299,3.75959631 25.4466482,4.15113768 27.7962167,4.78839126 C31.5178692,5.83316749 33.2605159,7.11966059 34.3481678,7.87277845 L30.2198978,11.7841969 L28.4792541,12.1677477 L29.7191373,10.1980548 C28.0405879,8.56197118 24.9518968,5.53951145 19.0909953,5.53951145 C11.2530911,5.53951145 5.34211357,11.4785549 5.34211357,20.1563904 C5.34211357,29.4694818 12.0943689,38.2332166 22.9168059,38.2332166 C26.09964,38.2332166 27.7361255,37.5959631 29.2203797,37.002658 L29.2203797,29.0160129 L21.7209897,29.415545 L25.6970285,27.2880369 L36.2210123,27.2880369 L34.9310531,28.5245885 C34.5845268,28.8182446 34.5404599,28.9161299 34.4423108,29.3156619 C34.3902317,29.7691308 34.3421587,31.1994554 34.3421587,31.7048634 L34.3421587,37.7417922 L34.3481678,37.7417922 L34.3481678,37.7417922 Z" id="Shape"></path>
                        </g>
                        <g id="Group" transform="translate(164.249461, 3.995320)">
                            <path d="M3.23090708,31.5730179 L3.23090708,45.0332516 L0.550836608,45.0332516 L0.550836608,10.7833692 L3.23090708,10.7833692 L3.23090708,14.6808041 C4.97555685,12.1617547 8.16640309,10.1640946 11.8700281,10.1640946 C18.5141191,10.1640946 22.9949246,15.192205 22.9949246,23.1488852 C22.9949246,31.0556239 18.5181252,36.1876127 11.8700281,36.1876127 C8.37471948,36.191608 5.24196146,34.3937139 3.23090708,31.5730179 L3.23090708,31.5730179 Z M20.1165529,23.1528805 C20.1165529,17.1539073 16.9817919,12.5792656 11.4193436,12.5792656 C7.96609887,12.5792656 4.66708835,15.2840974 3.23090708,17.643334 L3.23090708,28.6064926 C4.66708835,30.9697245 7.96609887,33.7764369 11.4193436,33.7764369 C16.9817919,33.7764369 20.1165529,29.1618421 20.1165529,23.1528805 L20.1165529,23.1528805 Z" id="Shape"></path>
                            <path d="M26.6544827,35.5763287 L26.6544827,1.32844397 L29.3385592,1.32844397 L29.3385592,35.5763287 L26.6544827,35.5763287 L26.6544827,35.5763287 Z" id="Shape"></path>
                            <path d="M59.4082289,42.8178466 C59.9790959,43.073547 60.9565805,43.2313622 61.5775236,43.2313622 C63.2140091,43.2313622 64.3597492,42.5601484 65.3813008,40.1989142 L67.340276,35.7820877 L56.7822405,10.7833692 L59.7707795,10.7833692 L68.8285364,32.447993 L77.7981594,10.7833692 L80.8307653,10.7833692 L67.9512039,41.0259454 C66.6171778,44.1442929 64.5139835,45.6425379 61.6255966,45.6425379 C60.7582793,45.6425379 59.6185483,45.4867204 58.9475292,45.2829591 L59.4082289,42.8178466 L59.4082289,42.8178466 Z" id="Shape"></path>
                            <path d="M51.5783369,35.5004176 C51.3980631,34.6374284 51.2658623,33.8823129 51.1677132,33.2490547 C51.0855885,32.6217894 51.0415216,31.9705522 51.0415216,31.3153197 C50.1221252,32.6617426 48.8201478,33.7804323 47.1596258,34.663398 C45.4950977,35.5483615 43.9146974,35.985849 41.7433996,35.985849 C39.1334356,35.985849 37.110363,35.3485954 35.6601605,34.0461211 C34.2179701,32.747642 33.4928688,30.9877034 33.4928688,28.7623101 C33.4928688,26.5369167 34.5444659,24.7330297 36.637645,23.3586395 C38.7328272,21.9702658 41.4389372,21.2850683 44.7900268,21.2850683 L51.0415216,21.2850683 L51.0415216,18.2006812 C51.0415216,16.4227637 50.4325967,15.0323922 49.2227593,14.0175809 C48.0089157,13.0047672 46.3023237,12.4953639 44.0909651,12.4953639 C42.0678925,12.4953639 40.429404,12.9608187 39.1835117,13.8717517 C37.9476347,14.8026613 37.3226855,15.9533135 37.3226855,17.3416873 L34.5785177,17.3416873 L34.5264386,17.2098417 C34.4262865,15.3360366 35.2835885,13.69396 37.1123661,12.277619 C38.9251193,10.8572826 41.3127456,10.1481133 44.2451994,10.1481133 C47.1616288,10.1481133 49.5292247,10.8512897 51.3119323,12.2476541 C53.0926368,13.6320325 53.9839906,15.6376833 53.9839906,18.2566156 L53.9839906,30.4862908 C53.9839906,31.3632635 54.0260545,32.2122691 54.1362218,33.0393004 C54.2523982,33.8683293 54.428666,34.6933629 54.6730371,35.4944246 L51.5783369,35.5004176 L51.5783369,35.5004176 Z M42.0678925,33.5546967 C44.3453515,33.5546967 45.9798339,33.047291 47.6543772,32.042468 C49.3128961,31.0456356 50.446618,29.7471565 51.0375155,28.1710027 L51.0375155,23.408581 L44.7559751,23.408581 C42.3563306,23.408581 40.3733188,23.9399586 38.8069398,25.0067091 C37.2425638,26.0714619 36.445353,27.3619504 36.445353,28.8621931 C36.445353,30.2765365 36.9501196,31.4032167 37.9476347,32.2602129 C38.9531618,33.1251998 40.3232427,33.5546967 42.0678925,33.5546967 L42.0678925,33.5546967 Z" id="Shape"></path>
                        </g>
                    </g>
                </g>
            </g>
        </g>
    </g>
</svg>